<svg width="20" height="20" viewBox="0 0 16 16" fill="none" xmlns="http://www.w3.org/2000/svg">
<path d="M5.66667 12.6667H1.66667C0.747333 12.6667 0 11.9187 0 11V3.00004C0 2.08137 0.747333 1.33337 1.66667 1.33337H11.6667C12.586 1.33337 13.3333 2.08137 13.3333 3.00004V5.66671C13.3333 5.85137 13.184 6.00004 13 6.00004C12.816 6.00004 12.6667 5.85137 12.6667 5.66671V3.00004C12.6667 2.44871 12.218 2.00004 11.6667 2.00004H1.66667C1.11533 2.00004 0.666667 2.44871 0.666667 3.00004V11C0.666667 11.5514 1.11533 12 1.66667 12H5.66667C5.85067 12 6 12.1494 6 12.3334C6 12.5174 5.85067 12.6667 5.66667 12.6667Z" fill="#b3b3b1"/>
<path d="M13 4.66667H0.333333C0.149333 4.66667 0 4.51733 0 4.33333C0 4.14933 0.149333 4 0.333333 4H13C13.184 4 13.3333 4.14933 13.3333 4.33333C13.3333 4.51733 13.184 4.66667 13 4.66667Z" fill="#b3b3b1"/>
<path d="M2.99996 3.33333C2.81596 3.33333 2.66663 3.184 2.66663 3V0.333333C2.66663 0.149333 2.81596 0 2.99996 0C3.18396 0 3.33329 0.149333 3.33329 0.333333V3C3.33329 3.184 3.18396 3.33333 2.99996 3.33333Z" fill="#b3b3b1"/>
<path d="M10.3333 3.33333C10.1493 3.33333 10 3.184 10 3V0.333333C10 0.149333 10.1493 0 10.3333 0C10.5173 0 10.6667 0.149333 10.6667 0.333333V3C10.6667 3.184 10.5173 3.33333 10.3333 3.33333Z" fill="#b3b3b1"/>
<path d="M11 13.3333C10.9113 13.3333 10.8266 13.298 10.764 13.236L9.43063 11.9027C9.30063 11.7727 9.30063 11.5613 9.43063 11.4313C9.56063 11.3013 9.77196 11.3013 9.90196 11.4313L10.9833 12.5127L13.082 10.114C13.2033 9.97468 13.414 9.96134 13.552 10.0827C13.6906 10.204 13.7046 10.4147 13.5833 10.5533L11.25 13.22C11.1893 13.2893 11.1026 13.3307 11.0106 13.3333C11.0073 13.3333 11.004 13.3333 11 13.3333Z" fill="#b3b3b1"/>
<path d="M11.6667 16C9.27737 16 7.33337 14.056 7.33337 11.6667C7.33337 9.27737 9.27737 7.33337 11.6667 7.33337C14.056 7.33337 16 9.27737 16 11.6667C16 14.056 14.056 16 11.6667 16ZM11.6667 8.00004C9.64537 8.00004 8.00004 9.64471 8.00004 11.6667C8.00004 13.6887 9.64537 15.3334 11.6667 15.3334C13.688 15.3334 15.3334 13.6887 15.3334 11.6667C15.3334 9.64471 13.688 8.00004 11.6667 8.00004Z" fill="#b3b3b1"/>
</svg>
