<svg width="34" height="34" viewBox="0 0 16 16" fill="none" xmlns="http://www.w3.org/2000/svg">
<path d="M10.1461 5.54163H9.34407H8.85441H5.34441C5.13107 5.54163 4.95874 5.71429 4.95874 5.92729V7.95096V8.43263V9.85429L5.84874 9.26563C5.84874 9.26563 6.51474 8.81796 7.42441 8.81796H9.34441C9.35407 8.81796 9.36207 8.81296 9.37174 8.81229H10.1464C10.5147 8.81229 10.8131 8.51363 10.8131 8.14563V6.20796C10.8127 5.84029 10.5144 5.54163 10.1461 5.54163Z" fill="black"/>
<path d="M8 0C3.582 0 0 3.58167 0 8C0 12.4183 3.582 16 8 16C12.4187 16 16 12.4183 16 8C16 3.58167 12.4187 0 8 0ZM12.125 9.271C12.125 9.639 11.8267 9.93767 11.4583 9.93767H7.68067C6.78633 9.93767 6.19533 10.2127 5.91933 10.377L5.73767 10.497L5.737 10.4977H5.73667L3.875 11.729V9.27067V8.43733V4.93733C3.875 4.56933 4.17367 4.27067 4.54167 4.27067H11.4583C11.8267 4.27067 12.125 4.56933 12.125 4.93733V9.271Z" fill="black"/>
</svg>
