<svg width="54" height="54" viewBox="0 0 66 66" fill="none" xmlns="http://www.w3.org/2000/svg">
<g clip-path="url(#clip0)">
<path d="M1 34C1 40.329 2.87677 46.5159 6.39297 51.7782C9.90918 57.0406 14.9069 61.1421 20.7541 63.5641C26.6014 65.9861 33.0355 66.6199 39.2429 65.3851C45.4503 64.1504 51.1521 61.1027 55.6274 56.6274C60.1027 52.1521 63.1504 46.4503 64.3851 40.2429C65.6199 34.0355 64.9861 27.6014 62.5641 21.7541C60.1421 15.9069 56.0406 10.9092 50.7782 7.39297C45.5159 3.87677 39.329 2 33 2C24.5131 2 16.3737 5.37142 10.3726 11.3726C4.37142 17.3737 1 25.5131 1 34V34Z" fill="#5c5c5c"/>
<circle cx="40.5" cy="32.5" r="1.5" fill="white"/>
<circle cx="35.5" cy="32.5" r="1.5" fill="white"/>
<path d="M17.05 48.38L18.56 40.38L17.8 38.73C17.2657 37.2105 16.9951 35.6107 17 34C17 25.72 24.16 19 33 19C41.84 19 49 25.72 49 34C49 42.28 41.84 49 33 49C30.4811 49.006 27.993 48.4455 25.72 47.36L24.6 46.77L17.06 48.37" stroke="white" stroke-width="2" stroke-linecap="round" stroke-linejoin="round"/>
<circle cx="25.5" cy="32.5" r="1.5" fill="white"/>
<circle cx="30.5" cy="32.5" r="1.5" fill="white"/>
</g>
<defs>
<clipPath id="clip0">
<rect width="66" height="66" fill="white"/>
</clipPath>
</defs>
</svg>
