<svg viewBox="0 0 751 425" fill="none" xmlns="http://www.w3.org/2000/svg">
<g id="undraw_Private_data_re_4eab 1">
<!-- <path id="Vector" d="M622.721 354.501H693.486L728.868 294.75L693.486 235H622.721L587.339 294.75L622.721 354.501Z" fill="#F2F2F2"/>
<path id="Vector_2" d="M58.8759 354.501H129.641L165.023 294.751L129.641 235H58.8759L23.4936 294.751L58.8759 354.501Z" fill="#F2F2F2"/>
<path id="Vector_3" d="M434.773 354.501H505.538L540.92 294.751L505.538 235H434.773L399.391 294.751L434.773 354.501Z" fill="#F2F2F2"/>
<path id="Vector_4" d="M246.824 354.501H317.589L352.971 294.75L317.589 235H246.824L211.442 294.75L246.824 354.501Z" fill="#F2F2F2"/>
<path id="Vector_5" d="M514.081 374.798H425.376C424.476 374.797 423.592 374.565 422.813 374.126C422.033 373.688 421.385 373.057 420.934 372.298L376.582 297.399C376.133 296.639 375.897 295.776 375.897 294.899C375.897 294.021 376.133 293.159 376.582 292.398L420.934 217.501C421.385 216.741 422.033 216.111 422.813 215.672C423.592 215.233 424.476 215.001 425.376 215H514.081C514.981 215.001 515.865 215.233 516.644 215.672C517.424 216.111 518.072 216.741 518.523 217.501L562.875 292.398C563.324 293.159 563.56 294.021 563.56 294.899C563.56 295.776 563.324 296.639 562.875 297.399L518.523 372.298C518.072 373.057 517.424 373.688 516.644 374.126C515.865 374.565 514.981 374.797 514.081 374.798ZM425.376 217.001C424.836 217.001 424.306 217.14 423.838 217.404C423.37 217.667 422.982 218.045 422.711 218.501L378.359 293.398C378.09 293.855 377.948 294.372 377.948 294.899C377.948 295.425 378.09 295.943 378.359 296.399L422.711 371.297C422.982 371.753 423.37 372.131 423.838 372.395C424.306 372.658 424.836 372.797 425.376 372.798H514.081C514.621 372.797 515.151 372.658 515.619 372.395C516.086 372.131 516.475 371.753 516.746 371.297L561.098 296.399C561.368 295.943 561.509 295.425 561.509 294.899C561.509 294.372 561.368 293.855 561.098 293.398L516.746 218.501C516.475 218.045 516.087 217.667 515.619 217.404C515.151 217.14 514.621 217.001 514.081 217L425.376 217.001Z" fill="#CCCCCC"/>
<path id="Vector_6" d="M326.132 374.798H237.428C236.528 374.797 235.644 374.565 234.864 374.126C234.085 373.688 233.437 373.057 232.985 372.298L188.633 297.399C188.185 296.639 187.948 295.776 187.948 294.899C187.948 294.021 188.185 293.159 188.633 292.398L232.986 217.501C233.437 216.741 234.085 216.111 234.864 215.672C235.644 215.233 236.528 215.001 237.428 215H326.132C327.032 215.001 327.916 215.233 328.696 215.672C329.475 216.111 330.123 216.741 330.575 217.501L374.927 292.398C375.375 293.159 375.612 294.021 375.612 294.899C375.612 295.776 375.375 296.639 374.927 297.399L330.574 372.298C330.123 373.057 329.475 373.688 328.696 374.126C327.916 374.565 327.032 374.797 326.132 374.798ZM237.428 217.001C236.888 217.001 236.357 217.14 235.89 217.404C235.422 217.667 235.033 218.045 234.762 218.501L190.41 293.398C190.141 293.855 189.999 294.372 189.999 294.899C189.999 295.425 190.141 295.943 190.41 296.399L234.762 371.297C235.033 371.753 235.422 372.131 235.89 372.395C236.357 372.658 236.888 372.797 237.428 372.798H326.132C326.672 372.797 327.203 372.658 327.67 372.395C328.138 372.131 328.527 371.753 328.797 371.297L373.15 296.399C373.419 295.943 373.561 295.425 373.561 294.899C373.561 294.372 373.419 293.855 373.15 293.398L328.797 218.501C328.527 218.045 328.138 217.667 327.67 217.404C327.203 217.14 326.672 217.001 326.132 217L237.428 217.001Z" fill="#CCCCCC"/>
<path id="Vector_7" d="M138.184 374.798H49.4794C48.5793 374.797 47.6952 374.565 46.9157 374.126C46.1361 373.688 45.4883 373.057 45.037 372.298L0.68489 297.399C0.236152 296.639 0 295.776 0 294.899C0 294.021 0.236152 293.159 0.68489 292.398L45.0371 217.501C45.4884 216.741 46.1362 216.111 46.9157 215.672C47.6952 215.233 48.5793 215.001 49.4794 215H138.184C139.084 215.001 139.968 215.233 140.747 215.672C141.527 216.111 142.175 216.741 142.626 217.501L186.978 292.398C187.427 293.159 187.663 294.021 187.663 294.899C187.663 295.776 187.427 296.639 186.978 297.399L142.626 372.298C142.175 373.057 141.527 373.688 140.747 374.127C139.968 374.565 139.084 374.797 138.184 374.798ZM49.4794 217C48.9393 217.001 48.4089 217.14 47.9412 217.404C47.4734 217.667 47.0847 218.045 46.8139 218.501L2.46185 293.398C2.19261 293.855 2.05091 294.372 2.05093 294.899C2.05095 295.425 2.19268 295.943 2.46196 296.399L46.8139 371.297C47.0847 371.753 47.4734 372.131 47.9412 372.395C48.4089 372.658 48.9393 372.797 49.4794 372.798H138.184C138.724 372.797 139.254 372.658 139.722 372.395C140.189 372.131 140.578 371.753 140.849 371.297L185.201 296.399C185.47 295.943 185.612 295.425 185.612 294.899C185.612 294.372 185.47 293.855 185.201 293.398L140.849 218.501C140.578 218.045 140.19 217.667 139.722 217.404C139.254 217.14 138.724 217.001 138.184 217H49.4794Z" fill="#CCCCCC"/>
<path id="Vector_8" d="M701.429 374.759H613.11C612.214 374.757 611.334 374.526 610.557 374.087C609.781 373.648 609.136 373.018 608.687 372.259L564.528 297.379C564.081 296.618 563.845 295.756 563.845 294.879C563.845 294.001 564.081 293.139 564.528 292.379L608.687 217.5C609.136 216.741 609.781 216.11 610.557 215.672C611.334 215.233 612.214 215.001 613.11 215H701.429C702.325 215.001 703.205 215.233 703.981 215.672C704.757 216.11 705.402 216.741 705.852 217.5L750.011 292.379C750.458 293.139 750.693 294.001 750.693 294.879C750.693 295.756 750.458 296.618 750.011 297.379L705.852 372.259C705.402 373.018 704.757 373.648 703.981 374.087C703.205 374.526 702.325 374.757 701.429 374.759V374.759ZM613.11 217C612.572 217.001 612.044 217.14 611.578 217.403C611.113 217.666 610.726 218.044 610.456 218.5L566.297 293.379C566.029 293.835 565.888 294.352 565.888 294.879C565.888 295.405 566.029 295.923 566.297 296.379L610.456 371.259C610.726 371.714 611.113 372.093 611.578 372.356C612.044 372.619 612.572 372.758 613.11 372.759H701.429C701.966 372.758 702.494 372.619 702.96 372.356C703.426 372.093 703.813 371.714 704.082 371.259L748.242 296.379C748.51 295.923 748.651 295.405 748.651 294.879C748.651 294.352 748.51 293.835 748.242 293.379L704.082 218.5C703.813 218.044 703.426 217.666 702.96 217.403C702.494 217.14 701.966 217.001 701.429 217H613.11Z" fill="#CCCCCC"/> -->
<a href="https://www.facebook.com/monika.maciejczukwiekiera">
<g id="facebook">
<path id="Vector_9" d="M134 295C134 317.092 116.092 335 94 335C71.9083 335 54 317.092 54 295C54 272.908 71.9083 255 94 255C116.092 255 134 272.908 134 295Z" fill="#4A7AFF"/>
<path id="Vector_10" d="M95.7554 334.959C117.032 334.041 134 316.503 134 295C134 294.844 133.996 294.689 133.994 294.534L106.228 266.768L76.5409 297.798L93.0356 314.293L85.4301 324.634L95.7554 334.959Z" fill="#0053BF"/>
<path id="Vector_11" d="M106.228 266.768V275.825C106.228 275.825 95.8292 274.316 95.8292 281.025V287.734H105.222L104.048 297.965H95.8292V324.634H85.4301V297.965L76.5403 297.797V287.734H85.2622V280.018C85.2622 280.018 84.6866 268.541 95.9971 266.433C100.694 265.557 106.228 266.768 106.228 266.768V266.768Z" fill="white"/>
<path id="Vector_12" d="M106.228 275.825V266.768C106.228 266.768 100.694 265.557 95.9971 266.433C95.2634 266.569 94.5811 266.746 93.9445 266.956V324.634H95.8292V297.965H104.048L105.222 287.734H95.8292C95.8292 287.734 95.8292 287.734 95.8292 281.025C95.8292 274.316 106.228 275.825 106.228 275.825Z" fill="#DCE1EB"/>
</g>
</a>
<g id="messenger" clip-path="url(#clip0)">
<path id="Vector_13" d="M282 255.008C260.384 254.582 242.497 271.723 242.004 293.338C242.06 304.34 246.932 314.766 255.336 321.868V333.334C255.336 334.254 256.082 335 257.002 335C257.315 335 257.621 334.912 257.886 334.747L267.175 328.944C271.907 330.754 276.933 331.677 282 331.667C303.616 332.093 321.503 314.952 321.996 293.338C321.503 271.723 303.616 254.582 282 255.008Z" fill="#2196F3"/>
<path id="Vector_14" d="M308.331 282.338C307.835 281.674 306.926 281.475 306.198 281.872L288.866 291.321L278.084 282.075C277.423 281.508 276.436 281.546 275.821 282.162L255.823 302.16C255.174 302.813 255.177 303.868 255.83 304.517C256.352 305.035 257.152 305.15 257.799 304.8L275.131 295.35L285.923 304.6C286.584 305.166 287.57 305.129 288.186 304.513L308.184 284.515C308.767 283.927 308.829 283 308.331 282.338Z" fill="#FAFAFA"/>
</g>
<a href="https://www.instagram.com/maciejczukmonika/">
<g id="instagram">
<g clip-path="url(#clip1)">
<path id="Vector_15" d="M435 260.443C428.713 266.973 430 273.91 430 294.983C430 312.483 426.947 330.027 442.927 334.157C447.917 335.44 492.13 335.44 497.113 334.15C503.767 332.433 509.18 327.037 509.92 317.627C510.023 316.313 510.023 273.677 509.917 272.337C509.13 262.313 502.96 256.537 494.83 255.367C492.967 255.097 492.593 255.017 483.033 255C449.123 255.017 441.69 253.507 435 260.443V260.443Z" fill="url(#paint0_linear)"/>
<path id="Vector_16" d="M469.993 265.463C457.89 265.463 446.397 264.387 442.007 275.653C440.193 280.307 440.457 286.35 440.457 295.003C440.457 302.597 440.213 309.733 442.007 314.35C446.387 325.623 457.973 324.543 469.987 324.543C481.577 324.543 493.527 325.75 497.97 314.35C499.787 309.65 499.52 303.697 499.52 295.003C499.52 283.463 500.157 276.013 494.56 270.42C488.893 264.753 481.23 265.463 469.98 265.463H469.993ZM467.347 270.787C492.593 270.747 495.807 267.94 494.033 306.93C493.403 320.72 482.903 319.207 469.997 319.207C446.463 319.207 445.787 318.533 445.787 294.99C445.787 271.173 447.653 270.8 467.347 270.78V270.787ZM485.76 275.69C483.803 275.69 482.217 277.277 482.217 279.233C482.217 281.19 483.803 282.777 485.76 282.777C487.717 282.777 489.303 281.19 489.303 279.233C489.303 277.277 487.717 275.69 485.76 275.69V275.69ZM469.993 279.833C461.617 279.833 454.827 286.627 454.827 295.003C454.827 303.38 461.617 310.17 469.993 310.17C478.37 310.17 485.157 303.38 485.157 295.003C485.157 286.627 478.37 279.833 469.993 279.833V279.833ZM469.993 285.157C483.01 285.157 483.027 304.85 469.993 304.85C456.98 304.85 456.96 285.157 469.993 285.157Z" fill="white"/>
</g>
</g>
</a>
<g id="twitter" clip-path="url(#clip2)">
<g id="Group">
<path id="Vector_17" d="M657.001 334.999C679.092 334.999 697 317.091 697 295C697 272.908 679.092 255 657.001 255C634.909 255 617.001 272.908 617.001 295C617.001 317.091 634.909 334.999 657.001 334.999Z" fill="#55ACEE"/>
<g id="Group_2">
<path id="Vector_18" d="M681.502 283.747C679.787 284.507 677.944 285.021 676.01 285.25C677.984 284.067 679.499 282.196 680.215 279.962C678.367 281.058 676.32 281.853 674.143 282.281C672.399 280.424 669.914 279.263 667.163 279.263C661.883 279.263 657.601 283.545 657.601 288.824C657.601 289.573 657.686 290.303 657.85 291.003C649.904 290.605 642.859 286.798 638.143 281.012C637.32 282.424 636.848 284.067 636.848 285.819C636.848 289.136 638.537 292.063 641.101 293.778C639.535 293.728 638.059 293.298 636.771 292.58C636.77 292.621 636.77 292.662 636.77 292.702C636.77 297.334 640.067 301.198 644.44 302.076C643.639 302.295 642.793 302.412 641.922 302.412C641.304 302.412 640.706 302.352 640.123 302.241C641.339 306.039 644.87 308.803 649.054 308.881C645.782 311.446 641.659 312.974 637.179 312.974C636.409 312.974 635.646 312.929 634.899 312.84C639.128 315.553 644.155 317.136 649.554 317.136C667.14 317.136 676.758 302.567 676.758 289.931C676.758 289.517 676.748 289.104 676.73 288.695C678.6 287.347 680.22 285.664 681.502 283.747Z" fill="#F1F2F2"/>
</g>
</g>
</g>
</g>
<defs>
<linearGradient id="paint0_linear" x1="435.153" y1="329.89" x2="509.505" y2="265.54" gradientUnits="userSpaceOnUse">
<stop stop-color="#FFDD55"/>
<stop offset="0.5" stop-color="#FF543E"/>
<stop offset="1" stop-color="#C837AB"/>
</linearGradient>
<clipPath id="clip0">
<rect width="80" height="80" fill="white" transform="translate(242 255)"/>
</clipPath>
<clipPath id="clip1">
<rect x="430" y="255" width="80" height="80" rx="40" fill="white"/>
</clipPath>
<clipPath id="clip2">
<rect width="80" height="80" fill="white" transform="translate(617 255)"/>
</clipPath>
</defs>
</svg>
