<svg width="24" height="24" viewBox="0 0 41 40" fill="none" xmlns="http://www.w3.org/2000/svg">
<g clip-path="url(#clip0)">
<path d="M5.15351 0H23.7249C26.0919 0 28.0107 1.91878 28.0107 4.28571V12.8571C28.0107 13.6461 27.3711 14.2857 26.5821 14.2857C25.7931 14.2857 25.1535 13.6461 25.1535 12.8571V4.28571C25.1535 3.49671 24.5139 2.85711 23.7249 2.85711H5.15342C4.36442 2.85711 3.72482 3.49671 3.72482 4.28571V35.7143C3.72482 36.5033 4.36442 37.1429 5.15342 37.1429H23.7249C24.514 37.1429 25.1535 36.5033 25.1535 35.7143V27.1429C25.1535 26.3539 25.7931 25.7143 26.5821 25.7143C27.3711 25.7143 28.0107 26.3539 28.0107 27.1429V35.7143C28.0107 38.0812 26.092 40 23.725 40H5.15359C2.78665 40 0.867881 38.0812 0.867881 35.7143V4.28571C0.867798 1.91878 2.78657 0 5.15351 0Z" fill="#5C5C5C"/>
<path d="M12.2964 18.5714H35.9906L31.2863 13.8671C30.7382 13.2996 30.7539 12.3952 31.3215 11.8471C31.8751 11.3125 32.7527 11.3125 33.3063 11.8471L40.4492 18.99C40.5819 19.1227 40.6868 19.2805 40.7577 19.4543C40.9022 19.8037 40.9022 20.1962 40.7577 20.5457C40.6864 20.7201 40.581 20.8784 40.4478 21.0114L33.3049 28.1543C32.7568 28.7218 31.8525 28.7375 31.285 28.1894C30.7174 27.6413 30.7017 26.737 31.2498 26.1694C31.2613 26.1576 31.273 26.1458 31.285 26.1343L35.9906 21.4285H12.2963C11.5073 21.4285 10.8677 20.789 10.8677 19.9999C10.8677 19.2109 11.5074 18.5714 12.2964 18.5714Z" fill="#5C5C5C"/>
</g>
<defs>
<clipPath id="clip0">
<rect width="40" height="40" fill="white" transform="matrix(-1 0 0 1 40.8669 0)"/>
</clipPath>
</defs>
</svg>
