<svg width="250" height="250" viewBox="0 0 1000 1000" fill="none" xmlns="http://www.w3.org/2000/svg">
<path opacity="0.7" d="M1000 0H0V1000H1000V0Z" fill="white"/>
<path d="M501.8 693.3C627.721 693.3 729.8 601.16 729.8 487.5C729.8 373.84 627.721 281.7 501.8 281.7C375.879 281.7 273.8 373.84 273.8 487.5C273.8 601.16 375.879 693.3 501.8 693.3Z" fill="#8FE3F9"/>
<path d="M501.8 693.3C627.721 693.3 729.8 601.16 729.8 487.5C729.8 373.84 627.721 281.7 501.8 281.7C375.879 281.7 273.8 373.84 273.8 487.5C273.8 601.16 375.879 693.3 501.8 693.3Z" fill="#8FE3F9"/>
<path d="M507.8 689.3C559.9 689.3 607.9 674 646.3 648.3L635.8 623.6C613.8 571.7 561.6 537.8 503.7 537.8C445.8 537.8 393.6 571.7 371.6 623.6L363 644C402.3 672.3 452.8 689.3 507.8 689.3Z" fill="#B2EBF9"/>
<path d="M501.7 470.3L458.1 534.3L491 578.1C496.4 585.3 507.3 585.3 512.7 578.1L545.3 534.3L501.7 470.3Z" fill="#A4E0EA"/>
<path d="M501.8 669.3C380.3 669.3 281.1 583.6 274.2 475.5C273.9 479.5 273.8 483.5 273.8 487.5C273.8 601.1 375.9 693.3 501.8 693.3C627.7 693.3 729.8 601.2 729.8 487.5C729.8 483.5 729.7 479.5 729.4 475.5C722.5 583.6 623.2 669.3 501.8 669.3Z" fill="#7AD1E5"/>
<path d="M638.6 628.1C600.5 653.9 553.1 669.3 501.8 669.3C451.8 669.3 405.6 654.8 368.1 630.2L363.1 642.5C402.5 671.7 452.9 689.3 507.9 689.3C557.6 689.3 603.6 674.9 641.1 650.5C642.9 649.3 644.6 648 646.4 646.7L638.6 628.1Z" fill="#A4E0EA"/>
<path d="M268.2 488.2C274.6 501.3 283.2 513.5 294 524.4C346.3 576.7 431.2 576.7 483.5 524.4C527.3 480.6 534.4 414.1 505 362.9" fill="#7AD1E5"/>
<path d="M729 503.8C705 539.9 664 563.6 617.4 563.6C543.4 563.6 483.4 503.6 483.4 429.6C483.4 396.6 495.3 366.4 515.1 343" fill="#7AD1E5"/>
<path d="M501.8 693.3C627.721 693.3 729.8 601.16 729.8 487.5C729.8 373.84 627.721 281.7 501.8 281.7C375.879 281.7 273.8 373.84 273.8 487.5C273.8 601.16 375.879 693.3 501.8 693.3Z" stroke="#413D51" stroke-width="16" stroke-miterlimit="10" stroke-linecap="round" stroke-linejoin="round"/>
<path d="M501.7 442.3L458.1 506.3L501.9 564.6L545.4 506.3L501.7 442.3Z" fill="#413D51"/>
<path d="M501.7 442.3L458.1 506.3L501.9 564.6L545.4 506.3L501.7 442.3Z" stroke="#413D51" stroke-width="16" stroke-miterlimit="10" stroke-linecap="round" stroke-linejoin="round"/>
<path d="M600.7 303.9C570.7 289.9 536.6 282 500.7 282C464.8 282 430.7 289.9 400.7 303.9V444H600.7V303.9Z" fill="#413D51"/>
<path d="M613.5 317.9L722.2 314.6C706.5 353.9 704.4 413 718.1 477.6C700.7 514.4 663.7 540.5 620.2 541.8C558.4 543.7 506.7 495.1 504.9 433.2C503 371.4 551.6 319.8 613.5 317.9Z" fill="#413D51"/>
<path d="M613.5 317.9L722.2 314.6C706.5 353.9 704.4 413 718.1 477.6C700.7 514.4 663.7 540.5 620.2 541.8C558.4 543.7 506.7 495.1 504.9 433.2C503 371.4 551.6 319.8 613.5 317.9Z" stroke="#413D51" stroke-width="16" stroke-miterlimit="10" stroke-linecap="round" stroke-linejoin="round"/>
<path d="M617.4 541.7C679.256 541.7 729.4 491.556 729.4 429.7C729.4 367.844 679.256 317.7 617.4 317.7C555.544 317.7 505.4 367.844 505.4 429.7C505.4 491.556 555.544 541.7 617.4 541.7Z" fill="#F7E8AD"/>
<path d="M617.4 541.7C679.256 541.7 729.4 491.556 729.4 429.7C729.4 367.844 679.256 317.7 617.4 317.7C555.544 317.7 505.4 367.844 505.4 429.7C505.4 491.556 555.544 541.7 617.4 541.7Z" fill="#F7E8AD"/>
<path d="M696.6 350.5C675.1 329 646.9 318.1 618.7 317.7C639.9 321.8 660.2 332 676.6 348.5C720.3 392.2 720.3 463.1 676.6 506.9C654.4 529.1 625.2 540 596.2 539.7C631.5 546.5 669.3 536.2 696.6 508.9C740.3 465.1 740.3 394.2 696.6 350.5Z" fill="#F7D6A1"/>
<path opacity="0.7" d="M650.521 489.522C683.325 456.718 683.135 403.343 650.097 370.305C617.059 337.267 563.683 337.077 530.88 369.88C498.076 402.684 498.266 456.059 531.304 489.097C564.342 522.135 617.717 522.325 650.521 489.522Z" fill="white"/>
<path d="M711.4 376.6C708.3 372.6 702.3 361.6 698.6 357.9C654.6 314.5 583.7 314.9 540.3 359C531.7 367.7 524.8 377.5 519.7 388C581.4 366.3 649 371.5 711.4 376.6Z" fill="#EFCA92"/>
<path d="M617.4 541.7C679.256 541.7 729.4 491.556 729.4 429.7C729.4 367.844 679.256 317.7 617.4 317.7C555.544 317.7 505.4 367.844 505.4 429.7C505.4 491.556 555.544 541.7 617.4 541.7Z" stroke="#413D51" stroke-width="16" stroke-miterlimit="10" stroke-linecap="round" stroke-linejoin="round"/>
<path d="M617.4 541.7C679.256 541.7 729.4 491.556 729.4 429.7C729.4 367.844 679.256 317.7 617.4 317.7C555.544 317.7 505.4 367.844 505.4 429.7C505.4 491.556 555.544 541.7 617.4 541.7Z" stroke="#413D51" stroke-width="16" stroke-miterlimit="10" stroke-linecap="round" stroke-linejoin="round"/>
<path d="M706.7 362.1C703.6 358.1 700.3 354.2 696.6 350.5C652.9 306.8 582 306.8 538.2 350.5C529.5 359.2 522.6 368.9 517.4 379.3C579.4 358.1 644.3 356.5 706.7 362.1Z" fill="#413D51"/>
<path d="M562.9 480.1C586.096 480.1 604.9 461.296 604.9 438.1C604.9 414.904 586.096 396.1 562.9 396.1C539.704 396.1 520.9 414.904 520.9 438.1C520.9 461.296 539.704 480.1 562.9 480.1Z" fill="#413D51"/>
<path d="M539.1 452.4C546.832 452.4 553.1 446.132 553.1 438.4C553.1 430.668 546.832 424.4 539.1 424.4C531.368 424.4 525.1 430.668 525.1 438.4C525.1 446.132 531.368 452.4 539.1 452.4Z" fill="white"/>
<path d="M388.8 317.9L280 314.6C295.7 353.9 297.8 413 284.1 477.6C301.5 514.4 338.5 540.5 382 541.8C443.8 543.7 495.5 495.1 497.3 433.2C499.2 371.4 450.6 319.8 388.8 317.9Z" fill="#413D51"/>
<path d="M388.8 317.9L280 314.6C295.7 353.9 297.8 413 284.1 477.6C301.5 514.4 338.5 540.5 382 541.8C443.8 543.7 495.5 495.1 497.3 433.2C499.2 371.4 450.6 319.8 388.8 317.9Z" stroke="#413D51" stroke-width="16" stroke-miterlimit="10" stroke-linecap="round" stroke-linejoin="round"/>
<path d="M384.8 541.7C446.656 541.7 496.8 491.556 496.8 429.7C496.8 367.844 446.656 317.7 384.8 317.7C322.944 317.7 272.8 367.844 272.8 429.7C272.8 491.556 322.944 541.7 384.8 541.7Z" fill="#F7E8AD"/>
<path d="M384.8 541.7C446.656 541.7 496.8 491.556 496.8 429.7C496.8 367.844 446.656 317.7 384.8 317.7C322.944 317.7 272.8 367.844 272.8 429.7C272.8 491.556 322.944 541.7 384.8 541.7Z" fill="#F7E8AD"/>
<path d="M305.6 350.5C327.1 329 355.3 318.1 383.5 317.7C362.3 321.8 342 332 325.6 348.5C281.9 392.2 281.9 463.1 325.6 506.9C347.8 529.1 377 540 406 539.7C370.7 546.5 332.9 536.2 305.6 508.9C261.9 465.1 261.9 394.2 305.6 350.5Z" fill="#F7D6A1"/>
<path opacity="0.7" d="M470.907 489.118C503.945 456.08 504.135 402.704 471.331 369.901C438.527 337.097 385.152 337.287 352.114 370.325C319.076 403.363 318.886 456.738 351.69 489.542C384.493 522.346 437.869 522.156 470.907 489.118Z" fill="white"/>
<path opacity="0.89" d="M290.9 376.6C294 372.6 300 361.6 303.7 357.9C347.7 314.5 418.6 314.9 462 359C470.6 367.7 477.5 377.5 482.6 388C420.8 366.3 353.2 371.5 290.9 376.6Z" fill="#EFCA92"/>
<path d="M384.8 541.7C446.656 541.7 496.8 491.556 496.8 429.7C496.8 367.844 446.656 317.7 384.8 317.7C322.944 317.7 272.8 367.844 272.8 429.7C272.8 491.556 322.944 541.7 384.8 541.7Z" stroke="#413D51" stroke-width="16" stroke-miterlimit="10" stroke-linecap="round" stroke-linejoin="round"/>
<path d="M384.8 541.7C446.656 541.7 496.8 491.556 496.8 429.7C496.8 367.844 446.656 317.7 384.8 317.7C322.944 317.7 272.8 367.844 272.8 429.7C272.8 491.556 322.944 541.7 384.8 541.7Z" stroke="#413D51" stroke-width="16" stroke-miterlimit="10" stroke-linecap="round" stroke-linejoin="round"/>
<path d="M295.6 362.1C298.7 358.1 302 354.2 305.7 350.5C349.4 306.8 420.3 306.8 464.1 350.5C472.8 359.2 479.7 368.9 484.9 379.3C422.9 358.1 357.9 356.5 295.6 362.1Z" fill="#413D51"/>
<path d="M439.4 480.1C462.596 480.1 481.4 461.296 481.4 438.1C481.4 414.904 462.596 396.1 439.4 396.1C416.204 396.1 397.4 414.904 397.4 438.1C397.4 461.296 416.204 480.1 439.4 480.1Z" fill="#413D51"/>
<path d="M463.2 452.4C470.932 452.4 477.2 446.132 477.2 438.4C477.2 430.668 470.932 424.4 463.2 424.4C455.468 424.4 449.2 430.668 449.2 438.4C449.2 446.132 455.468 452.4 463.2 452.4Z" fill="white"/>
<path d="M447.9 718.3C439.1 718.3 431.9 711.1 431.9 702.3V684.3C431.9 675.5 439.1 668.3 447.9 668.3C456.7 668.3 463.9 675.5 463.9 684.3V702.3C463.9 711.1 456.8 718.3 447.9 718.3Z" fill="#413D51"/>
<path d="M415.9 718.3C407.1 718.3 399.9 711.1 399.9 702.3V684.3C399.9 675.5 407.1 668.3 415.9 668.3C424.7 668.3 431.9 675.5 431.9 684.3V702.3C431.9 711.1 424.8 718.3 415.9 718.3Z" fill="#413D51"/>
<path d="M479.7 718.3C470.9 718.3 463.7 711.1 463.7 702.3V684.3C463.7 675.5 470.9 668.3 479.7 668.3C488.5 668.3 495.7 675.5 495.7 684.3V702.3C495.7 711.1 488.5 718.3 479.7 718.3Z" fill="#413D51"/>
<path d="M521.9 718.3C513.1 718.3 505.9 711.1 505.9 702.3V684.3C505.9 675.5 513.1 668.3 521.9 668.3C530.7 668.3 537.9 675.5 537.9 684.3V702.3C537.9 711.1 530.7 718.3 521.9 718.3Z" fill="#413D51"/>
<path d="M553.7 718.3C544.9 718.3 537.7 711.1 537.7 702.3V684.3C537.7 675.5 544.9 668.3 553.7 668.3C562.5 668.3 569.7 675.5 569.7 684.3V702.3C569.7 711.1 562.5 718.3 553.7 718.3Z" fill="#413D51"/>
<path d="M585.7 718.3C576.9 718.3 569.7 711.1 569.7 702.3V684.3C569.7 675.5 576.9 668.3 585.7 668.3C594.5 668.3 601.7 675.5 601.7 684.3V702.3C601.7 711.1 594.5 718.3 585.7 718.3Z" fill="#413D51"/>
<path d="M491.9 587.6C491.9 596 485.1 602.8 476.7 602.8C468.3 602.8 461.5 596 461.5 587.6" stroke="#413D51" stroke-width="8" stroke-miterlimit="10" stroke-linecap="round" stroke-linejoin="round"/>
<path d="M538.4 587.6C538.4 596 531.6 602.8 523.2 602.8C514.8 602.8 508 596 508 587.6" stroke="#413D51" stroke-width="8" stroke-miterlimit="10" stroke-linecap="round" stroke-linejoin="round"/>
<path opacity="0.31" d="M323 548.8C320.8 553.5 315.3 555.6 310.5 553.4C305.7 551.2 303.7 545.7 305.9 540.9" stroke="#72C8D6" stroke-width="8" stroke-miterlimit="10" stroke-linecap="round" stroke-linejoin="round"/>
<path opacity="0.31" d="M352.8 564.3C350.6 569 345.1 571.1 340.3 568.9C335.6 566.7 333.5 561.2 335.7 556.4" stroke="#72C8D6" stroke-width="8" stroke-miterlimit="10" stroke-linecap="round" stroke-linejoin="round"/>
<path opacity="0.31" d="M335.5 576.2C333.3 580.9 327.8 583 323 580.8C318.3 578.6 316.2 573.1 318.4 568.3" stroke="#72C8D6" stroke-width="8" stroke-miterlimit="10" stroke-linecap="round" stroke-linejoin="round"/>
<path opacity="0.31" d="M361.7 596.1C359.5 600.8 354 602.9 349.2 600.7C344.5 598.5 342.4 593 344.6 588.2" stroke="#72C8D6" stroke-width="8" stroke-miterlimit="10" stroke-linecap="round" stroke-linejoin="round"/>
<path opacity="0.31" d="M381.7 578.1C379.5 582.8 374 584.9 369.2 582.7C364.5 580.5 362.4 575 364.6 570.2" stroke="#72C8D6" stroke-width="8" stroke-miterlimit="10" stroke-linecap="round" stroke-linejoin="round"/>
<path opacity="0.31" d="M683.7 550.8C685.9 555.5 691.4 557.6 696.2 555.4C701 553.2 703 547.7 700.8 542.9" stroke="#72C8D6" stroke-width="8" stroke-miterlimit="10" stroke-linecap="round" stroke-linejoin="round"/>
<path opacity="0.31" d="M654 566.3C656.2 571 661.7 573.1 666.5 570.9C671.2 568.7 673.3 563.2 671.1 558.4" stroke="#72C8D6" stroke-width="8" stroke-miterlimit="10" stroke-linecap="round" stroke-linejoin="round"/>
<path opacity="0.31" d="M671.2 578.2C673.4 582.9 678.9 585 683.7 582.8C688.4 580.6 690.5 575.1 688.3 570.3" stroke="#72C8D6" stroke-width="8" stroke-miterlimit="10" stroke-linecap="round" stroke-linejoin="round"/>
<path opacity="0.31" d="M645.1 598.1C647.3 602.8 652.8 604.9 657.6 602.7C662.3 600.5 664.4 595 662.2 590.2" stroke="#72C8D6" stroke-width="8" stroke-miterlimit="10" stroke-linecap="round" stroke-linejoin="round"/>
<path opacity="0.31" d="M625.1 580.1C627.3 584.8 632.8 586.9 637.6 584.7C642.3 582.5 644.4 577 642.2 572.2" stroke="#72C8D6" stroke-width="8" stroke-miterlimit="10" stroke-linecap="round" stroke-linejoin="round"/>
<path d="M468.7 624.1C468.7 632.5 461.9 639.3 453.5 639.3C445.1 639.3 438.3 632.5 438.3 624.1" stroke="#413D51" stroke-width="8" stroke-miterlimit="10" stroke-linecap="round" stroke-linejoin="round"/>
<path d="M515.2 624.1C515.2 632.5 508.4 639.3 500 639.3C491.6 639.3 484.8 632.5 484.8 624.1" stroke="#413D51" stroke-width="8" stroke-miterlimit="10" stroke-linecap="round" stroke-linejoin="round"/>
<path d="M561.7 624.1C561.7 632.5 554.9 639.3 546.5 639.3C538.1 639.3 531.3 632.5 531.3 624.1" stroke="#413D51" stroke-width="8" stroke-miterlimit="10" stroke-linecap="round" stroke-linejoin="round"/>
</svg>
