<svg width="24" height="24" viewBox="0 0 40 40" fill="none" xmlns="http://www.w3.org/2000/svg">
<circle cx="20" cy="20" r="20" fill="white"/>
<path d="M17.3892 29.4148C17.3156 29.4149 17.2435 29.3934 17.1819 29.3531L11.499 25.6329C11.4151 25.578 11.3564 25.4919 11.3359 25.3937C11.3154 25.2955 11.3347 25.1932 11.3896 25.1092L23.0369 7.3179C23.2175 7.04304 23.4998 6.85099 23.8218 6.78382C24.1438 6.71666 24.4792 6.77986 24.7547 6.95957L28.9941 9.7346C29.1305 9.82382 29.2479 9.93905 29.3397 10.0737C29.4315 10.2083 29.4959 10.3598 29.5292 10.5193C29.5624 10.6789 29.5639 10.8434 29.5335 11.0035C29.5031 11.1636 29.4414 11.3162 29.352 11.4524L17.7048 29.2438C17.6498 29.3277 17.5638 29.3864 17.4656 29.4069C17.4405 29.4121 17.4149 29.4147 17.3892 29.4148V29.4148ZM12.23 25.2073L17.2791 28.5135L28.719 11.0377C28.7539 10.9846 28.778 10.9251 28.7898 10.8626C28.8017 10.8002 28.8011 10.736 28.7881 10.6737C28.7752 10.6115 28.7501 10.5524 28.7142 10.4999C28.6784 10.4474 28.6326 10.4024 28.5794 10.3676L24.3415 7.5926C24.2341 7.52247 24.1032 7.49783 23.9775 7.52407C23.8519 7.55032 23.7418 7.62531 23.6714 7.7326L12.23 25.2073Z" fill="black"/>
<path d="M10.8236 33.2433C10.7702 33.2433 10.7173 33.232 10.6686 33.2102C10.6198 33.1884 10.5763 33.1564 10.5407 33.1165C10.5052 33.0767 10.4785 33.0297 10.4625 32.9788C10.4464 32.9278 10.4413 32.8741 10.4475 32.821L11.3302 25.2727C11.3377 25.2087 11.3614 25.1476 11.3991 25.0952C11.4368 25.0429 11.4873 25.0011 11.5457 24.9738C11.6041 24.9464 11.6686 24.9345 11.7329 24.9391C11.7972 24.9436 11.8593 24.9646 11.9133 24.9999L17.5958 28.7201C17.6497 28.7555 17.6937 28.804 17.7236 28.8611C17.7535 28.9182 17.7683 28.982 17.7666 29.0464C17.765 29.1108 17.7469 29.1738 17.7141 29.2292C17.6812 29.2847 17.6348 29.3309 17.5791 29.3634L11.0139 33.1918C10.9561 33.2255 10.8905 33.2432 10.8236 33.2433V33.2433ZM12.0109 25.9682L11.2871 32.1562L16.6703 29.0179L12.0109 25.9682Z" fill="black"/>
<path d="M14.1298 31.3135C14.0634 31.3135 13.9981 31.296 13.9406 31.2628C13.8831 31.2296 13.8353 31.1818 13.8021 31.1243C13.5331 30.6625 13.1602 30.2696 12.713 29.9769C12.2658 29.6841 11.7566 29.4994 11.2257 29.4375C11.1274 29.4246 11.038 29.3736 10.9768 29.2955C10.9157 29.2174 10.8877 29.1183 10.8989 29.0198C10.91 28.9212 10.9595 28.8309 11.0365 28.7684C11.1136 28.7059 11.2121 28.6762 11.3109 28.6857C11.9593 28.761 12.5813 28.9864 13.1275 29.344C13.6736 29.7016 14.1288 30.1816 14.4571 30.746C14.4903 30.8034 14.5078 30.8687 14.5078 30.935C14.5078 31.0014 14.4903 31.0667 14.4572 31.1242C14.424 31.1817 14.3763 31.2294 14.3188 31.2627C14.2614 31.2959 14.1962 31.3135 14.1298 31.3135Z" fill="black"/>
<path d="M26.247 15.8802C26.1735 15.8804 26.1015 15.8589 26.0401 15.8185L20.3602 12.0998C20.3174 12.0732 20.2804 12.0382 20.2513 11.9971C20.2222 11.9559 20.2016 11.9094 20.1907 11.8601C20.1799 11.8109 20.179 11.76 20.188 11.7104C20.1971 11.6608 20.216 11.6136 20.2436 11.5714C20.2712 11.5292 20.307 11.493 20.3488 11.4648C20.3906 11.4367 20.4376 11.4171 20.4871 11.4074C20.5365 11.3976 20.5874 11.3979 20.6368 11.4081C20.6862 11.4183 20.733 11.4382 20.7746 11.4668L26.4548 15.1855C26.5229 15.2302 26.5747 15.2957 26.6026 15.3722C26.6305 15.4487 26.633 15.5322 26.6097 15.6102C26.5863 15.6883 26.5384 15.7567 26.4731 15.8053C26.4078 15.854 26.3285 15.8802 26.247 15.8802V15.8802Z" fill="black"/>
<path d="M14.5514 27.549C14.4831 27.549 14.4162 27.5305 14.3576 27.4956C14.2991 27.4606 14.251 27.4105 14.2186 27.3505C14.1862 27.2904 14.1706 27.2228 14.1735 27.1546C14.1764 27.0865 14.1976 27.0204 14.235 26.9633L23.091 13.4355C23.1183 13.394 23.1535 13.3582 23.1947 13.3302C23.2358 13.3023 23.2821 13.2827 23.3308 13.2727C23.3795 13.2626 23.4297 13.2622 23.4786 13.2716C23.5275 13.2809 23.574 13.2998 23.6156 13.3271C23.6571 13.3544 23.6929 13.3897 23.7209 13.4309C23.7488 13.472 23.7684 13.5183 23.7784 13.567C23.7885 13.6157 23.7889 13.6659 23.7795 13.7148C23.7702 13.7636 23.7513 13.8102 23.724 13.8517L14.8677 27.3784C14.8332 27.4308 14.7863 27.4739 14.7311 27.5037C14.6759 27.5335 14.6141 27.549 14.5514 27.549V27.549Z" fill="black"/>
</svg>
