<svg width="200" height="200" viewBox="0 0 1000 1000" fill="none" xmlns="http://www.w3.org/2000/svg">
<path d="M490.1 655.5C480.7 656.7 473.2 669.9 471.8 680.8C471.4 684 471.2 687.1 471.2 690.3C471.2 700.7 473.4 710.6 477.4 720.7C481.4 730.6 487.4 740.7 494.6 746.5C501.9 740.7 507.8 730.6 511.8 720.7C515.8 710.6 518 700.7 518 690.3C518 687.1 517.8 684 517.4 680.8C516 669.8 508.5 656.7 499.1 655.5C496.2 655.2 493.1 655.2 490.1 655.5Z" stroke="#601B23" stroke-width="6" stroke-miterlimit="10" stroke-linecap="round" stroke-linejoin="round"/>
<path d="M490.1 655.5C480.7 656.7 473.2 669.9 471.8 680.8C471.4 684 471.2 687.1 471.2 690.3C471.2 700.7 473.4 710.6 477.4 720.7C481.4 730.6 487.4 740.7 494.6 746.5C501.9 740.7 507.8 730.6 511.8 720.7C515.8 710.6 518 700.7 518 690.3C518 687.1 517.8 684 517.4 680.8C516 669.8 508.5 656.7 499.1 655.5C496.2 655.2 493.1 655.2 490.1 655.5Z" fill="#E36535"/>
<path d="M536.6 718.2C536.6 736.8 532.7 754.6 525.5 772.7C525.3 773.3 525 773.9 524.7 774.6C517.5 791.8 507.2 809 494.7 819.1C481.8 808.7 471.3 790.8 464 773.1C463.9 773 463.9 772.9 463.8 772.7C456.6 754.6 452.7 736.8 452.7 718.2C452.7 712.5 453.1 706.9 453.8 701.1C456.2 681.7 469.4 658.3 485.9 655.8C486.1 655.8 486.3 655.7 486.5 655.7C491.7 655.1 497 655.1 502.2 655.6C502.4 655.6 502.7 655.6 502.9 655.7C519.7 657.8 533.2 681.5 535.6 701.1C536.2 706.9 536.6 712.5 536.6 718.2Z" fill="#F4A045"/>
<path d="M536.6 718.2C536.6 736.8 532.7 754.6 525.5 772.7C525.3 773.3 525 773.9 524.7 774.6C517.5 791.8 507.2 809 494.7 819.1C481.8 808.7 471.3 790.8 464 773.1C463.9 773 463.9 772.9 463.8 772.7C456.6 754.6 452.7 736.8 452.7 718.2C452.7 712.5 453.1 706.9 453.8 701.1C456.2 681.7 469.4 658.3 485.9 655.8C486.1 655.8 486.3 655.7 486.5 655.7C491.7 655.1 497 655.1 502.2 655.6C502.4 655.6 502.7 655.6 502.9 655.7C519.7 657.8 533.2 681.5 535.6 701.1C536.2 706.9 536.6 712.5 536.6 718.2Z" stroke="#601B23" stroke-width="6" stroke-miterlimit="10" stroke-linecap="round" stroke-linejoin="round"/>
<path d="M1000 0H0V1000H1000V0Z" fill="white"/>
<path d="M1000 821.2C984.8 825.7 972.4 836.8 966.2 851.2C954.2 846.9 941.2 844.5 927.7 844.5C887.7 844.5 852.5 865.1 832.1 896.2C821.5 891.2 809.7 888.5 797.2 888.5C791.7 888.5 786.4 889 781.3 890.1C781.3 889.6 781.3 889.1 781.3 888.5C781.3 863 763.3 841.7 739.4 836.6C730.2 805.1 701.2 782 666.7 782C638 782 613 798 600.2 821.5C591.3 813.2 579.4 808 566.3 808C558.8 808 551.7 809.7 545.3 812.6C537.5 800.5 530.6 787.8 524.7 774.4C510.1 741.4 502 704.6 502 666C502 662.5 502.1 659.1 502.2 655.6C503.9 610.9 516.4 569 537.3 532.4H450.8C471.7 569 484.2 611 485.9 655.7C486 659.1 486.1 662.5 486.1 665.9C486.1 703.9 478.2 740.2 464 773C454.7 794.4 442.8 814.4 428.5 832.5C416.4 817.5 397.9 808 377.2 808C356.4 808 337.9 817.6 325.8 832.6C316.1 826.9 304.9 823.6 292.8 823.6C273.4 823.6 255.9 832.2 244 845.7C226.4 819.6 196.6 802.4 162.8 802.4C108.8 802.4 65 846.2 65 900.2C65 900.5 65 900.8 65 901.1C28.4 919.7 2.70001 956.7 0.200012 1000H236.2H720.1H1000V821.2Z" fill="#DEE1E1"/>
<path d="M374 502.8L341.4 515.5V453.6L441.5 375.5V492.6L417.3 505.3C404.4 498.5 388.7 497.1 374 502.8Z" fill="#C11A4D"/>
<path d="M330.8 531.7C320.6 516.9 314.7 499.4 314.7 480.7C314.7 457 324 435.3 339.5 418.6C355 435.3 364.4 457 364.5 480.7C364.5 499.5 358.6 516.9 348.5 531.7H330.8Z" fill="#CF264D"/>
<path opacity="0.72" d="M341.4 515.5L373.8 502.9C374.2 494.3 373.6 485.5 372 476.7C369.6 463.5 365.1 451.1 358.9 439.9L341.4 453.6V515.5V515.5Z" fill="#A5143A"/>
<path opacity="0.23" d="M345.6 470.9L441.6 396.1V375.5L341.4 453.5V515.5L345.6 513.9V470.9Z" fill="#F4A15D"/>
<path opacity="0.72" d="M401.7 500C407.2 500.9 412.4 502.7 417.3 505.3L441.5 492.6V375.5L399.3 408.4C397.2 421.1 396.2 434.4 396.2 448.1C396.3 466.2 398.2 483.7 401.7 500Z" fill="#A5143A"/>
<path d="M374 502.8L341.4 515.5V453.6L441.5 375.5V492.6L417.3 505.3C404.4 498.5 388.7 497.1 374 502.8Z" stroke="#601B23" stroke-width="6" stroke-miterlimit="10" stroke-linecap="round" stroke-linejoin="round"/>
<path d="M330.8 531.7C320.6 516.9 314.7 499.4 314.7 480.7C314.7 457 324 435.3 339.5 418.6C355 435.3 364.4 457 364.5 480.7C364.5 499.5 358.6 516.9 348.5 531.7H330.8Z" fill="#CF264D"/>
<path opacity="0.23" d="M338 418.6C339.2 419.9 340.4 421.3 341.5 422.7C331.1 438.7 325.1 457.5 325 477.5C325 497.3 328 515.8 338.2 531.8H329C318.9 517 313 499.5 313 480.8C313.1 457 322.5 435.3 338 418.6Z" fill="#F4A15D"/>
<path opacity="0.32" d="M338 418.6C338.4 419 338.8 419.5 339.2 420C327.5 437.3 320.8 457.6 320.7 479.4C320.7 498.3 325.8 516.1 334.7 531.8H329C318.9 517 313 499.5 313 480.8C313.1 457 322.5 435.3 338 418.6Z" fill="#F4A15D"/>
<path opacity="0.37" d="M364.5 480.7C364.5 457 355.1 435.4 339.5 418.6C338.3 419.9 337.1 421.3 336 422.7C346.4 438.7 352.4 457.5 352.5 477.5C352.5 497.3 346.7 515.8 336.5 531.8H348.5C358.6 516.9 364.5 499.4 364.5 480.7Z" fill="#A5143A"/>
<path opacity="0.72" d="M364.5 480.7C364.5 457 355.1 435.4 339.5 418.6C339.1 419 338.7 419.5 338.3 420C350 437.3 356.7 457.6 356.8 479.4C356.8 498.3 351.7 516.1 342.8 531.8H348.5C358.6 516.9 364.5 499.4 364.5 480.7Z" fill="#A5143A"/>
<path opacity="0.37" d="M339.5 418.6C338.3 419.9 337.1 421.3 336 422.7C346.4 438.7 352.4 457.5 352.5 477.5C352.5 497.3 346.7 515.8 336.5 531.8H348.5C358.6 517 364.5 499.5 364.5 480.8C364.4 457 355 435.3 339.5 418.6Z" fill="#A5143A"/>
<path opacity="0.72" d="M339.5 418.6C339.1 419 338.7 419.5 338.3 420C350 437.3 356.7 457.6 356.8 479.4C356.8 498.3 351.7 516.1 342.8 531.8H348.5C358.6 517 364.5 499.5 364.5 480.8C364.4 457 355 435.3 339.5 418.6Z" fill="#A5143A"/>
<path d="M350.9 436.6C347.2 430.1 342.8 424.1 337.7 418.5C332.6 424 328.2 430.1 324.5 436.6H350.9Z" fill="#601B23"/>
<path d="M330.8 531.7C320.6 516.9 314.7 499.4 314.7 480.7C314.7 457 324 435.3 339.5 418.6C355 435.3 364.4 457 364.5 480.7C364.5 499.5 358.6 516.9 348.5 531.7H330.8Z" stroke="#601B23" stroke-width="6" stroke-miterlimit="10" stroke-linecap="round" stroke-linejoin="round"/>
<path d="M460.7 608.9C460.7 608.9 448.6 611.5 431.2 628.9C424.9 635.2 415 648 407.7 657.7C404.7 661.7 398.3 659.7 398.2 654.7L395.8 548.2C395.3 545.2 396.1 542.1 398 539.8L424.2 507.2L460.7 608.9Z" fill="#CF264D"/>
<path opacity="0.32" d="M398 656.8C403.7 656 408 651.1 408.1 645.3L409.2 546.3C408.7 543.3 409.5 540.2 411.4 537.9L427.8 517.4L424.1 507.2L398 539.7C396.1 542.1 395.3 545.1 395.8 548.1L398 656.8Z" fill="#F4A15D"/>
<path opacity="0.72" d="M460.7 608.9L424.2 507.2L409.7 525.3C417.5 555.3 429.8 585.8 446.4 616.2C455.2 610.1 460.7 608.9 460.7 608.9Z" fill="#A5143A"/>
<path d="M460.7 608.9C460.7 608.9 448.6 611.5 431.2 628.9C424.9 635.2 415 648 407.7 657.7C404.7 661.7 398.3 659.7 398.2 654.7L395.8 548.2C395.3 545.2 396.1 542.1 398 539.8L424.2 507.2L460.7 608.9Z" stroke="#601B23" stroke-width="6" stroke-miterlimit="10" stroke-linecap="round" stroke-linejoin="round"/>
<path d="M321.3 518.5H354.2" stroke="#601B23" stroke-width="4" stroke-miterlimit="10" stroke-linecap="round" stroke-linejoin="round"/>
<path d="M330.8 531.7C320.6 516.9 314.7 499.4 314.7 480.7C314.7 457 324 435.3 339.5 418.6C355 435.3 364.4 457 364.5 480.7C364.5 499.5 358.6 516.9 348.5 531.7H330.8Z" fill="#CF264D"/>
<path d="M330.8 531.7C320.6 516.9 314.7 499.4 314.7 480.7C314.7 457 324 435.3 339.5 418.6C355 435.3 364.4 457 364.5 480.7C364.5 499.5 358.6 516.9 348.5 531.7H330.8Z" fill="#CF264D"/>
<path opacity="0.23" d="M338 418.6C339.2 419.9 340.4 421.3 341.5 422.7C331.1 438.7 325.1 457.5 325 477.5C325 497.3 328 515.8 338.2 531.8H329C318.9 517 313 499.5 313 480.8C313.1 457 322.5 435.3 338 418.6Z" fill="#F4A15D"/>
<path opacity="0.32" d="M338 418.6C338.4 419 338.8 419.5 339.2 420C327.5 437.3 320.8 457.6 320.7 479.4C320.7 498.3 325.8 516.1 334.7 531.8H329C318.9 517 313 499.5 313 480.8C313.1 457 322.5 435.3 338 418.6Z" fill="#F4A15D"/>
<path opacity="0.37" d="M364.5 480.7C364.5 457 355.1 435.4 339.5 418.6C338.3 419.9 337.1 421.3 336 422.7C346.4 438.7 352.4 457.5 352.5 477.5C352.5 497.3 346.7 515.8 336.5 531.8H348.5C358.6 516.9 364.5 499.4 364.5 480.7Z" fill="#A5143A"/>
<path opacity="0.72" d="M364.5 480.7C364.5 457 355.1 435.4 339.5 418.6C339.1 419 338.7 419.5 338.3 420C350 437.3 356.7 457.6 356.8 479.4C356.8 498.3 351.7 516.1 342.8 531.8H348.5C358.6 516.9 364.5 499.4 364.5 480.7Z" fill="#A5143A"/>
<path opacity="0.37" d="M339.5 418.6C338.3 419.9 337.1 421.3 336 422.7C346.4 438.7 352.4 457.5 352.5 477.5C352.5 497.3 346.7 515.8 336.5 531.8H348.5C358.6 517 364.5 499.5 364.5 480.8C364.4 457 355 435.3 339.5 418.6Z" fill="#A5143A"/>
<path opacity="0.72" d="M339.5 418.6C339.1 419 338.7 419.5 338.3 420C350 437.3 356.7 457.6 356.8 479.4C356.8 498.3 351.7 516.1 342.8 531.8H348.5C358.6 517 364.5 499.5 364.5 480.8C364.4 457 355 435.3 339.5 418.6Z" fill="#A5143A"/>
<path d="M352.7 436.6C349 430.1 344.6 424.1 339.5 418.5C334.4 424 330 430.1 326.3 436.6H352.7Z" fill="#601B23"/>
<path d="M330.8 531.7C320.6 516.9 314.7 499.4 314.7 480.7C314.7 457 324 435.3 339.5 418.6C355 435.3 364.4 457 364.5 480.7C364.5 499.5 358.6 516.9 348.5 531.7H330.8Z" stroke="#601B23" stroke-width="6" stroke-miterlimit="10" stroke-linecap="round" stroke-linejoin="round"/>
<path d="M321.3 518.5H354.2" stroke="#601B23" stroke-width="4" stroke-miterlimit="10" stroke-linecap="round" stroke-linejoin="round"/>
<path d="M609.5 502.8L642.1 515.5V453.6L542 375.5V492.6L566.2 505.3C579.1 498.5 594.8 497.1 609.5 502.8Z" fill="#C11A4D"/>
<path opacity="0.72" d="M642.1 515.5L609.7 502.9C609.3 494.3 609.9 485.5 611.5 476.7C613.9 463.5 618.4 451.1 624.6 439.9L642.1 453.6V515.5Z" fill="#A5143A"/>
<path opacity="0.23" d="M638 470.9L542 396.1V375.5L642.1 453.5V515.5L638 513.9V470.9Z" fill="#F4A15D"/>
<path opacity="0.72" d="M581.8 500C576.3 500.9 571.1 502.7 566.2 505.3L542 492.6V375.5L584.2 408.4C586.3 421.1 587.3 434.4 587.3 448.1C587.3 466.2 585.4 483.7 581.8 500Z" fill="#A5143A"/>
<path d="M609.5 502.8L642.1 515.5V453.6L542 375.5V492.6L566.2 505.3C579.1 498.5 594.8 497.1 609.5 502.8Z" stroke="#601B23" stroke-width="6" stroke-miterlimit="10" stroke-linecap="round" stroke-linejoin="round"/>
<path d="M522.9 608.9C522.9 608.9 535 611.5 552.4 628.9C558.7 635.2 568.6 648 575.9 657.7C578.9 661.7 585.3 659.7 585.4 654.7L587.8 548.2C588.3 545.2 587.5 542.1 585.6 539.8L559.4 507.2L522.9 608.9Z" fill="#CF264D"/>
<path opacity="0.72" d="M585.5 656.8C579.8 656 575.5 651.1 575.4 645.3L574.3 546.3C574.8 543.3 574 540.2 572.1 537.9L555.7 517.4L559.4 507.2L585.6 539.8C587.5 542.2 588.3 545.2 587.8 548.2L585.5 656.8Z" fill="#A5143A"/>
<path opacity="0.72" d="M522.9 608.9L559.4 507.2L573.9 525.3C566.1 555.3 553.8 585.8 537.2 616.2C528.4 610.1 522.9 608.9 522.9 608.9Z" fill="#A5143A"/>
<path d="M522.9 608.9C522.9 608.9 535 611.5 552.4 628.9C558.7 635.2 568.6 648 575.9 657.7C578.9 661.7 585.3 659.7 585.4 654.7L587.8 548.2C588.3 545.2 587.5 542.1 585.6 539.8L559.4 507.2L522.9 608.9Z" stroke="#601B23" stroke-width="6" stroke-miterlimit="10" stroke-linecap="round" stroke-linejoin="round"/>
<path d="M522.4 666.1C523.5 654.2 521.9 643 501.9 613.5C498.6 608.8 490.7 608.8 487.4 613.5C467.4 643.1 465.8 654.3 466.9 666.1C467.1 667.6 469.8 669.3 471.5 668.7C483 662.8 506.3 662.8 517.8 668.7C519.5 669.3 522.2 667.7 522.4 666.1Z" fill="#4E8280"/>
<g opacity="0.32">
<g opacity="0.32">
<g opacity="0.32">
<path opacity="0.32" d="M477 666.1C475.9 654.2 477.5 643 497.5 613.5C498.1 612.6 498.9 611.9 499.7 611.4C495.9 608.9 490.1 609.6 487.4 613.5C467.4 643.1 465.8 654.3 466.9 666.1C467.1 667.6 469.8 669.3 471.5 668.7C473.2 667.9 475.1 667.1 477.1 666.5C477.1 666.4 477 666.3 477 666.1Z" fill="#F4A15D"/>
</g>
<g opacity="0.32">
<path opacity="0.32" d="M499.7 664.5C506.6 665 513.1 666.4 517.8 668.7C519.3 669.3 521.7 667.9 522.3 666.5C515.7 664.6 507.5 663.9 499.7 664.5Z" fill="#F4A15D"/>
</g>
</g>
</g>
<path d="M490.9 613.5C490.6 613.1 490.3 612.8 490 612.5C493.7 608.8 500.6 609.2 503.6 613.5C523.6 643.1 525.2 654.3 524.1 666.1C523.9 667.6 521.2 669.3 519.5 668.7C517.2 667.5 514.4 666.6 511.4 665.9C512.5 654.1 510.8 642.9 490.9 613.5Z" fill="#37605D"/>
<path d="M522.4 666.1C523.5 654.2 521.9 643 501.9 613.5C498.6 608.8 490.7 608.8 487.4 613.5C467.4 643.1 465.8 654.3 466.9 666.1C467.1 667.6 469.8 669.3 471.5 668.7C483 662.8 506.3 662.8 517.8 668.7C519.5 669.3 522.2 667.7 522.4 666.1Z" stroke="#601B23" stroke-width="6" stroke-miterlimit="10" stroke-linecap="round" stroke-linejoin="round"/>
<path d="M517.2 630.2C564.3 553.1 581.4 477.4 570.8 414.3C561.6 359.5 532 320 494.6 295.3C457.2 320 427.6 359.5 418.4 414.3C407.8 477.4 425 553.1 472 630.2H517.2Z" fill="#CF264D"/>
<path opacity="0.23" d="M454.2 415.4C460.2 365.8 475.8 326.4 496.8 296.9C496.1 296.4 495.3 295.9 494.6 295.4C457.2 320.1 427.6 359.6 418.4 414.4C407.8 477.5 425 553.2 472 630.3H481.5C455.4 553.2 446.6 479.1 454.2 415.4Z" fill="#F4A15D"/>
<path opacity="0.37" d="M570.8 414.3C561.7 359.9 532.5 320.6 495.4 295.9C502.3 307 511.1 323 518.5 343.3C532 380.2 533.5 410.6 534.3 429.7C537.9 515.6 505 610.6 498.1 630.3H517.2C564.3 553.1 581.4 477.4 570.8 414.3Z" fill="#A5143A"/>
<path opacity="0.72" d="M570.8 414.3C561.6 359.5 532 320 494.6 295.3C493.6 295.9 492.7 296.6 491.7 297.2C505.9 308.3 516.7 320.2 524.9 331.6C598.5 434 527.9 587.3 518.2 607.6C517.8 593.8 516 576.7 510.9 557.6C507.6 545.4 503.6 534.7 499.6 525.6C498.1 559.5 496.6 593.4 495.1 627.3H507.5C507.2 628.3 506.9 629.2 506.5 630.2H517C564.3 553.1 581.4 477.4 570.8 414.3Z" fill="#A5143A"/>
<path opacity="0.32" d="M431 431.7C432.4 415.7 437.6 363.7 469.7 321C474.8 314.3 482.4 305.2 481.8 304.7C480.9 303.9 463.3 319.8 450.8 336.7C435.1 357.8 423.6 383.7 418.5 414.3C407.9 477.4 425.1 553.1 472.1 630.2H476.2C463.3 604.5 454.8 581.3 449 563C445.2 550.7 438.5 528.9 434.3 499.7C431.6 480.1 428.6 459.1 431 431.7Z" fill="#F4A15D"/>
<path opacity="0.72" d="M500 452.3C515.022 452.3 527.2 440.122 527.2 425.1C527.2 410.078 515.022 397.9 500 397.9C484.978 397.9 472.8 410.078 472.8 425.1C472.8 440.122 484.978 452.3 500 452.3Z" fill="#A5143A" stroke="#A5143A" stroke-width="6" stroke-miterlimit="10" stroke-linecap="round" stroke-linejoin="round"/>
<path d="M517.2 630.2C564.3 553.1 581.4 477.4 570.8 414.3C561.6 359.5 532 320 494.6 295.3C457.2 320 427.6 359.5 418.4 414.3C407.8 477.4 425 553.1 472 630.2H517.2Z" stroke="#601B23" stroke-width="6" stroke-miterlimit="10" stroke-linecap="round" stroke-linejoin="round"/>
<path d="M494.6 448.1C509.622 448.1 521.8 435.922 521.8 420.9C521.8 405.878 509.622 393.7 494.6 393.7C479.578 393.7 467.4 405.878 467.4 420.9C467.4 435.922 479.578 448.1 494.6 448.1Z" fill="#ABCFD8"/>
<path opacity="0.93" d="M490.9 435.8C499.957 435.8 507.3 428.457 507.3 419.4C507.3 410.343 499.957 403 490.9 403C481.843 403 474.5 410.343 474.5 419.4C474.5 428.457 481.843 435.8 490.9 435.8Z" fill="#E2F0F2"/>
<path d="M494.6 448.1C509.622 448.1 521.8 435.922 521.8 420.9C521.8 405.878 509.622 393.7 494.6 393.7C479.578 393.7 467.4 405.878 467.4 420.9C467.4 435.922 479.578 448.1 494.6 448.1Z" stroke="#601B23" stroke-width="6" stroke-miterlimit="10" stroke-linecap="round" stroke-linejoin="round"/>
<path d="M456.2 329.8C481.1 321.2 508.4 321.2 533.3 329.9C522 316.2 508.9 304.7 494.7 295.3C480.5 304.7 467.4 316.2 456.2 329.8Z" fill="#601B23"/>
<path d="M456.2 329.8C481.1 321.2 508.4 321.2 533.3 329.9C522 316.2 508.9 304.7 494.7 295.3C480.5 304.7 467.4 316.2 456.2 329.8Z" stroke="#601B23" stroke-width="6" stroke-miterlimit="10" stroke-linecap="round" stroke-linejoin="round"/>
<path d="M494.6 677C495.7 677 496.6 675.8 496.7 674.2L504.2 551.8C505 539.2 501 527.5 495.1 524.7C494.7 524.5 494.3 524.5 494 524.7C488.1 527.4 484.1 539.1 484.9 551.8L492.4 674.2C492.6 675.8 493.6 677 494.6 677Z" fill="#BC1D4E"/>
<path opacity="0.74" d="M494.6 677C495.7 677 496.6 675.8 496.7 674.2L504.2 551.8C505 539.2 501 527.5 495.1 524.7C494.7 524.5 494.3 524.5 494 524.7C488.1 527.4 484.1 539.1 484.9 551.8L492.4 674.2C492.6 675.8 493.6 677 494.6 677Z" fill="#A5143A"/>
<g opacity="0.53">
<g opacity="0.53">
<g opacity="0.53">
<path opacity="0.53" d="M494.1 524.7C488.2 527.4 484.2 539.1 485 551.8L492.5 674.2C492.6 675.5 493.2 676.6 494 676.9V524.7H494.1Z" fill="#F4A15D"/>
</g>
<g opacity="0.53">
<path opacity="0.53" d="M494.1 524.7H495.2C494.8 524.5 494.4 524.5 494.1 524.7Z" fill="#F4A15D"/>
</g>
</g>
</g>
<path d="M494.6 677C495.7 677 496.6 675.8 496.7 674.2L504.2 551.8C505 539.2 501 527.5 495.1 524.7C494.7 524.5 494.3 524.5 494 524.7C488.1 527.4 484.1 539.1 484.9 551.8L492.4 674.2C492.6 675.8 493.6 677 494.6 677Z" stroke="#601B23" stroke-width="6" stroke-miterlimit="10" stroke-linecap="round" stroke-linejoin="round"/>
<path d="M641.4 531.7C631.2 516.9 625.3 499.4 625.3 480.7C625.3 457 634.6 435.3 650.1 418.6C665.6 435.3 675 457 675.1 480.7C675.1 499.5 669.2 516.9 659.1 531.7H641.4Z" fill="#CF264D"/>
<path d="M641.4 531.7C631.2 516.9 625.3 499.4 625.3 480.7C625.3 457 634.6 435.3 650.1 418.6C665.6 435.3 675 457 675.1 480.7C675.1 499.5 669.2 516.9 659.1 531.7H641.4Z" fill="#CF264D"/>
<path opacity="0.23" d="M648.7 418.6C649.9 419.9 651.1 421.3 652.2 422.7C641.8 438.7 635.8 457.5 635.7 477.5C635.7 497.3 638.7 515.8 648.9 531.8H639.7C629.6 517 623.7 499.5 623.7 480.8C623.7 457 633.1 435.3 648.7 418.6Z" fill="#F4A15D"/>
<path opacity="0.32" d="M648.7 418.6C649.1 419 649.5 419.5 649.9 420C638.2 437.3 631.5 457.6 631.4 479.4C631.4 498.3 636.5 516.1 645.4 531.8H639.7C629.6 517 623.7 499.5 623.7 480.8C623.7 457 633.1 435.3 648.7 418.6Z" fill="#F4A15D"/>
<path opacity="0.37" d="M675.1 480.7C675.1 457 665.7 435.4 650.1 418.6C648.9 419.9 647.7 421.3 646.6 422.7C657 438.7 663 457.5 663.1 477.5C663.1 497.3 657.3 515.8 647.1 531.8H659.1C669.2 516.9 675.1 499.4 675.1 480.7Z" fill="#A5143A"/>
<path opacity="0.72" d="M675.1 480.7C675.1 457 665.7 435.4 650.1 418.6C649.7 419 649.3 419.5 648.9 420C660.6 437.3 667.3 457.6 667.4 479.4C667.4 498.3 662.3 516.1 653.4 531.8H659.1C669.2 516.9 675.1 499.4 675.1 480.7Z" fill="#A5143A"/>
<path opacity="0.37" d="M650.1 418.6C648.9 419.9 647.7 421.3 646.6 422.7C657 438.7 663 457.5 663.1 477.5C663.1 497.3 657.3 515.8 647.1 531.8H659.1C669.2 517 675.1 499.5 675.1 480.8C675.1 457 665.7 435.3 650.1 418.6Z" fill="#A5143A"/>
<path opacity="0.72" d="M650.1 418.6C649.7 419 649.3 419.5 648.9 420C660.6 437.3 667.3 457.6 667.4 479.4C667.4 498.3 662.3 516.1 653.4 531.8H659.1C669.2 517 675.1 499.5 675.1 480.8C675.1 457 665.7 435.3 650.1 418.6Z" fill="#A5143A"/>
<path d="M663.4 436.6C659.7 430.1 655.3 424.1 650.2 418.5C645.1 424 640.7 430.1 637 436.6H663.4Z" fill="#601B23"/>
<path d="M641.4 531.7C631.2 516.9 625.3 499.4 625.3 480.7C625.3 457 634.6 435.3 650.1 418.6C665.6 435.3 675 457 675.1 480.7C675.1 499.5 669.2 516.9 659.1 531.7H641.4Z" stroke="#601B23" stroke-width="6" stroke-miterlimit="10" stroke-linecap="round" stroke-linejoin="round"/>
<path d="M633.8 518.5H666.7" stroke="#601B23" stroke-width="4" stroke-miterlimit="10" stroke-linecap="round" stroke-linejoin="round"/>
<path opacity="0.41" d="M463.8 326.4C463.8 326.4 470.6 315.7 493.7 297.7C483 312.2 480.9 321.3 480.2 322C473.4 323.3 463.8 326.4 463.8 326.4Z" fill="white"/>
</svg>
