<svg width="24" height="24" viewBox="0 0 32 32" fill="none" xmlns="http://www.w3.org/2000/svg">
<path d="M6.83826 5.56813H0.941168C0.421311 5.56813 0 5.14654 0 4.62696C0 4.10738 0.421311 3.68579 0.941168 3.68579H6.83826C7.35812 3.68579 7.77943 4.10738 7.77943 4.62696C7.77943 5.14654 7.35812 5.56813 6.83826 5.56813Z" fill="#5C5C5C"/>
<path d="M10.2081 8.93779C7.83095 8.93779 5.89709 7.00394 5.89709 4.62698C5.89709 2.24953 7.83095 0.315674 10.2081 0.315674C12.5853 0.315674 14.5191 2.24953 14.5191 4.62698C14.5191 7.00401 12.5853 8.93779 10.2081 8.93779ZM10.2081 2.19808C8.86891 2.19808 7.77943 3.28777 7.77943 4.62698C7.77943 5.96619 8.86891 7.05539 10.2081 7.05539C11.5473 7.05539 12.6368 5.96619 12.6368 4.62698C12.6368 3.28777 11.5473 2.19808 10.2081 2.19808Z" fill="#5C5C5C"/>
<path d="M31.0589 5.56813H16.9922C16.4723 5.56813 16.051 5.14654 16.051 4.62696C16.051 4.10738 16.4723 3.68579 16.9922 3.68579H31.0588C31.5787 3.68579 32 4.10738 32 4.62696C32 5.14654 31.5787 5.56813 31.0589 5.56813Z" fill="#5C5C5C"/>
<path d="M22.8448 20.3108C20.4676 20.3108 18.5338 18.377 18.5338 16C18.5338 13.6231 20.4677 11.6892 22.8448 11.6892C25.222 11.6892 27.1559 13.6231 27.1559 16C27.1559 18.377 25.2221 20.3108 22.8448 20.3108ZM22.8448 13.5716C21.5056 13.5716 20.4162 14.6608 20.4162 16C20.4162 17.3392 21.5056 18.4284 22.8448 18.4284C24.184 18.4284 25.2735 17.3392 25.2735 16C25.2735 14.6608 24.184 13.5716 22.8448 13.5716Z" fill="#5C5C5C"/>
<path d="M16.061 16.9414H0.941168C0.421311 16.9414 0 16.5198 0 16.0003C0 15.4807 0.421311 15.0591 0.941168 15.0591H16.061C16.5809 15.0591 17.0022 15.4807 17.0022 16.0003C17.0022 16.5198 16.5809 16.9414 16.061 16.9414Z" fill="#5C5C5C"/>
<path d="M31.0588 16.9414H26.2147C25.6949 16.9414 25.2736 16.5198 25.2736 16.0003C25.2736 15.4807 25.6949 15.0591 26.2147 15.0591H31.0588C31.5787 15.0591 32 15.4807 32 16.0003C32 16.5198 31.5787 16.9414 31.0588 16.9414Z" fill="#5C5C5C"/>
<path d="M9.15514 31.6844C6.77797 31.6844 4.84412 29.7505 4.84412 27.3731C4.84412 24.9961 6.77797 23.0623 9.15514 23.0623C11.5323 23.0623 13.4662 24.9961 13.4662 27.3731C13.4662 29.7505 11.5323 31.6844 9.15514 31.6844ZM9.15514 24.9447C7.81593 24.9447 6.72645 26.0339 6.72645 27.3731C6.72645 28.7123 7.81593 29.802 9.15514 29.802C10.4943 29.802 11.5838 28.7123 11.5838 27.3731C11.5838 26.0339 10.4943 24.9447 9.15514 24.9447Z" fill="#5C5C5C"/>
<path d="M31.0589 28.3142H15.939C15.4191 28.3142 14.9978 27.8926 14.9978 27.3731C14.9978 26.8535 15.4191 26.4319 15.939 26.4319H31.0589C31.5787 26.4319 32 26.8535 32 27.3731C32 27.8926 31.5787 28.3142 31.0589 28.3142Z" fill="#5C5C5C"/>
<path d="M5.7853 28.3143H0.941168C0.421311 28.3143 0 27.8927 0 27.3731C0 26.8535 0.421311 26.4319 0.941168 26.4319H5.7853C6.30515 26.4319 6.72647 26.8535 6.72647 27.3731C6.72647 27.8927 6.30515 28.3143 5.7853 28.3143Z" fill="#5C5C5C"/>
</svg>
