<svg width="18" height="18" viewBox="0 0 16 16" fill="none" xmlns="http://www.w3.org/2000/svg">
<path d="M13.5 0H2.5C1.1215 0 0 1.1215 0 2.5V3.75C0 4.09519 0.279813 4.375 0.625 4.375C0.970187 4.375 1.25 4.09519 1.25 3.75V2.5C1.25 1.81075 1.81075 1.25 2.5 1.25H13.5C14.1892 1.25 14.75 1.81075 14.75 2.5V13.5C14.75 14.1892 14.1892 14.75 13.5 14.75H2.5C1.81075 14.75 1.25 14.1892 1.25 13.5V12.25C1.25 11.9048 0.970187 11.625 0.625 11.625C0.279813 11.625 0 11.9048 0 12.25V13.5C0 14.8785 1.1215 16 2.5 16H13.5C14.8785 16 16 14.8785 16 13.5V2.5C16 1.1215 14.8785 0 13.5 0Z" fill="black"/>
<path d="M10.4975 6.67399L8.16048 4.33911C7.91629 4.09514 7.52057 4.09532 7.27661 4.33951C7.03264 4.5837 7.03282 4.97942 7.27701 5.22339L9.61382 7.55805C9.85751 7.80174 9.85751 8.19824 9.61382 8.44193C9.61291 8.44283 9.61201 8.44377 9.6111 8.44468L7.27411 10.8108C7.03154 11.0564 7.03398 11.4521 7.27957 11.6947C7.40136 11.815 7.56007 11.875 7.71873 11.875C7.87998 11.875 8.04117 11.813 8.16342 11.6892L10.4992 9.3243C11.2288 8.59311 11.2283 7.40477 10.4975 6.67399Z" fill="black"/>
<path d="M7.28125 7.375H0.625C0.279813 7.375 0 7.65481 0 8C0 8.34519 0.279813 8.625 0.625 8.625H7.28125C7.62644 8.625 7.90625 8.34519 7.90625 8C7.90625 7.65481 7.62644 7.375 7.28125 7.375Z" fill="black"/>
</svg>
