<svg width="24" height="24" viewBox="0 0 16 16" fill="none" xmlns="http://www.w3.org/2000/svg">
<path d="M7.92942 16.0001C7.84208 16.0001 7.75675 15.9654 7.69342 15.9027C7.61475 15.8241 7.58008 15.7107 7.60208 15.6021L8.07342 13.2454C8.08675 13.1801 8.11742 13.1207 8.16475 13.0747L13.3501 7.88941C13.7394 7.50008 14.3747 7.50008 14.7641 7.88941L15.7067 8.83208C16.0967 9.22208 16.0967 9.85608 15.7067 10.2461L10.5214 15.4314C10.4754 15.4781 10.4161 15.5094 10.3507 15.5227L7.99408 15.9941C7.97275 15.9981 7.95075 16.0001 7.92942 16.0001V16.0001ZM8.70808 13.4741L8.35475 15.2414L10.1221 14.8881L15.2361 9.77408C15.3661 9.64408 15.3661 9.43275 15.2361 9.30275L14.2934 8.36008C14.1634 8.23008 13.9521 8.23008 13.8221 8.36008L8.70808 13.4741ZM10.2861 15.1954H10.2927H10.2861Z" fill="black"/>
<path d="M6.33333 14H1.66667C0.747333 14 0 13.2527 0 12.3333V3.66667C0 2.74733 0.747333 2 1.66667 2H3C3.184 2 3.33333 2.14933 3.33333 2.33333C3.33333 2.51733 3.184 2.66667 3 2.66667H1.66667C1.11533 2.66667 0.666667 3.11533 0.666667 3.66667V12.3333C0.666667 12.8847 1.11533 13.3333 1.66667 13.3333H6.33333C6.51733 13.3333 6.66667 13.4827 6.66667 13.6667C6.66667 13.8507 6.51733 14 6.33333 14Z" fill="black"/>
<path d="M11 8C10.816 8 10.6667 7.85067 10.6667 7.66667V3.66667C10.6667 3.11533 10.218 2.66667 9.66666 2.66667H8.33333C8.14933 2.66667 8 2.51733 8 2.33333C8 2.14933 8.14933 2 8.33333 2H9.66666C10.586 2 11.3333 2.74733 11.3333 3.66667V7.66667C11.3333 7.85067 11.184 8 11 8Z" fill="black"/>
<path d="M7.66663 4H3.66663C3.11529 4 2.66663 3.55133 2.66663 3V1.66667C2.66663 1.48267 2.81596 1.33333 2.99996 1.33333H4.03329C4.18796 0.573333 4.86196 0 5.66663 0C6.47129 0 7.14529 0.573333 7.29996 1.33333H8.33329C8.51729 1.33333 8.66663 1.48267 8.66663 1.66667V3C8.66663 3.55133 8.21796 4 7.66663 4ZM3.33329 2V3C3.33329 3.18333 3.48329 3.33333 3.66663 3.33333H7.66663C7.84996 3.33333 7.99996 3.18333 7.99996 3V2H6.99996C6.81596 2 6.66663 1.85067 6.66663 1.66667C6.66663 1.11533 6.21796 0.666667 5.66663 0.666667C5.11529 0.666667 4.66663 1.11533 4.66663 1.66667C4.66663 1.85067 4.51729 2 4.33329 2H3.33329Z" fill="black"/>
<path d="M8.99999 6.00004H2.33333C2.14933 6.00004 2 5.85071 2 5.66671C2 5.48271 2.14933 5.33337 2.33333 5.33337H8.99999C9.18399 5.33337 9.33332 5.48271 9.33332 5.66671C9.33332 5.85071 9.18399 6.00004 8.99999 6.00004Z" fill="black"/>
<path d="M8.99999 8.00004H2.33333C2.14933 8.00004 2 7.85071 2 7.66671C2 7.48271 2.14933 7.33337 2.33333 7.33337H8.99999C9.18399 7.33337 9.33332 7.48271 9.33332 7.66671C9.33332 7.85071 9.18399 8.00004 8.99999 8.00004Z" fill="black"/>
<path d="M8.99999 10H2.33333C2.14933 10 2 9.85071 2 9.66671C2 9.48271 2.14933 9.33337 2.33333 9.33337H8.99999C9.18399 9.33337 9.33332 9.48271 9.33332 9.66671C9.33332 9.85071 9.18399 10 8.99999 10Z" fill="black"/>
</svg>
