<svg  viewBox="0 0 879 681" fill="none" xmlns="http://www.w3.org/2000/svg">
<g id="socials" clip-path="url(#clip1)">
<g id="girl2">
<path id="Vector" d="M436.155 671.623H426.8L422.349 635.538L436.156 635.539L436.155 671.623Z" fill="#FFB8B8"/>
<path id="Vector_2" d="M438.54 680.692L408.376 680.69V680.309C408.376 678.767 408.679 677.24 409.269 675.816C409.859 674.391 410.724 673.097 411.814 672.007C412.905 670.916 414.199 670.052 415.624 669.462C417.048 668.872 418.575 668.568 420.117 668.568H420.117L438.541 668.569L438.54 680.692Z" fill="#2F2E41"/>
<path id="Vector_3" d="M540.662 662.87L531.844 665.993L515.602 633.465L528.617 628.856L540.662 662.87Z" fill="#FFB8B8"/>
<path id="Vector_4" d="M545.939 670.622L517.505 680.692L517.377 680.332C516.862 678.878 516.639 677.338 516.719 675.798C516.8 674.258 517.183 672.75 517.847 671.358C518.511 669.966 519.442 668.719 520.588 667.687C521.733 666.655 523.071 665.859 524.525 665.345L524.525 665.344L541.892 659.194L545.939 670.622Z" fill="#2F2E41"/>
<path id="Vector_5" d="M435.894 659.507C435.684 659.507 435.475 659.488 435.268 659.451L423.828 657.371C423.05 657.227 422.344 656.819 421.83 656.217C421.317 655.614 421.026 654.853 421.007 654.061C419.344 577.056 427.519 525.308 445.306 488.217C445.622 487.561 446.14 487.023 446.784 486.682C447.429 486.341 448.165 486.216 448.885 486.323L490.024 492.263C490.775 492.372 491.469 492.727 491.997 493.271C492.526 493.816 492.859 494.521 492.945 495.275L496.573 527.25C496.592 527.423 496.629 527.593 496.681 527.758L536.124 645.936C536.393 646.796 536.315 647.727 535.906 648.53C535.497 649.333 534.791 649.944 533.937 650.233L523.278 653.786C522.493 654.043 521.643 654.011 520.88 653.695C520.117 653.379 519.493 652.8 519.12 652.064L465.767 551.462C465.661 551.25 465.493 551.076 465.284 550.965C465.075 550.853 464.837 550.809 464.602 550.838C464.367 550.867 464.147 550.968 463.972 551.128C463.797 551.287 463.676 551.497 463.625 551.728L439.237 656.808C439.072 657.572 438.65 658.257 438.042 658.748C437.434 659.239 436.676 659.507 435.894 659.507Z" fill="#2F2E41"/>
<path id="Vector_6" d="M403.381 425.851C403.475 426.262 403.536 426.681 403.564 427.102L436.344 446.013L444.311 441.426L452.805 452.546L439.489 462.037C438.414 462.803 437.118 463.2 435.797 463.168C434.477 463.136 433.202 462.676 432.165 461.858L398.363 435.192C396.838 435.756 395.177 435.843 393.601 435.441C392.025 435.038 390.609 434.165 389.541 432.938C388.473 431.711 387.804 430.188 387.622 428.572C387.441 426.955 387.757 425.322 388.526 423.889C389.296 422.456 390.484 421.292 391.932 420.55C393.379 419.809 395.019 419.526 396.631 419.739C398.244 419.951 399.753 420.65 400.959 421.742C402.165 422.834 403.01 424.267 403.381 425.851V425.851Z" fill="#FFB8B8"/>
<path id="Vector_7" d="M436.794 444.122C436.893 443.639 437.095 443.182 437.386 442.784C437.677 442.386 438.051 442.055 438.481 441.814L453.524 433.403C455.523 431.86 458.051 431.173 460.556 431.492C463.06 431.811 465.336 433.11 466.884 435.104C468.433 437.099 469.127 439.626 468.815 442.131C468.502 444.636 467.21 446.916 465.219 448.469L453.226 460.924C452.884 461.279 452.469 461.556 452.009 461.737C451.55 461.918 451.058 461.997 450.565 461.97C450.072 461.943 449.591 461.81 449.154 461.581C448.717 461.351 448.335 461.03 448.034 460.639L437.44 446.908C437.138 446.518 436.924 446.067 436.813 445.586C436.701 445.105 436.695 444.606 436.794 444.122V444.122Z" fill="black"/>
<path id="Vector_8" d="M471.824 423.965C482.175 423.965 490.566 415.574 490.566 405.223C490.566 394.873 482.175 386.481 471.824 386.481C461.473 386.481 453.082 394.873 453.082 405.223C453.082 415.574 461.473 423.965 471.824 423.965Z" fill="#FFB8B8"/>
<path id="Vector_9" d="M490.074 496.261C489.888 496.261 489.702 496.245 489.518 496.215L448.958 489.566C448.5 489.491 448.062 489.323 447.67 489.074C447.278 488.825 446.941 488.499 446.679 488.115C446.417 487.732 446.235 487.299 446.145 486.844C446.055 486.388 446.058 485.919 446.154 485.465L448.128 476.162C447.118 474.655 438.893 461.552 448.91 449.245C448.718 444.873 450.24 440.598 453.152 437.331C456.065 434.064 460.137 432.063 464.503 431.754L485.464 430.161C488.16 429.957 490.866 430.403 493.355 431.462C495.843 432.521 498.04 434.162 499.762 436.248C501.483 438.333 502.679 440.801 503.248 443.445C503.817 446.089 503.743 448.831 503.031 451.44L493.422 493.59C493.247 494.348 492.822 495.024 492.214 495.509C491.606 495.994 490.851 496.259 490.074 496.261V496.261Z" fill="black"/>
<path id="Vector_10" d="M527.95 531.507C528.638 530.526 529.102 529.406 529.311 528.226C529.519 527.045 529.466 525.834 529.155 524.676C528.844 523.519 528.284 522.444 527.512 521.526C526.741 520.609 525.778 519.872 524.691 519.367L501.598 448.365L488.215 454.715L513.483 523.849C512.756 525.731 512.744 527.815 513.45 529.705C514.157 531.595 515.532 533.16 517.315 534.104C519.098 535.048 521.166 535.305 523.126 534.827C525.086 534.348 526.802 533.167 527.95 531.507V531.507Z" fill="#FFB8B8"/>
<path id="Vector_11" d="M506.706 460.186L488.935 465.554C488.429 465.707 487.897 465.749 487.374 465.677C486.85 465.606 486.349 465.422 485.903 465.139C485.457 464.856 485.077 464.48 484.789 464.037C484.502 463.594 484.313 463.094 484.236 462.572L481.538 444.262C480.773 441.671 481.066 438.882 482.353 436.507C483.641 434.132 485.817 432.364 488.405 431.591C490.993 430.817 493.783 431.101 496.162 432.38C498.541 433.659 500.317 435.829 501.099 438.415L508.968 455.101C509.193 455.578 509.313 456.099 509.318 456.627C509.324 457.155 509.216 457.679 509.001 458.161C508.787 458.644 508.471 459.075 508.075 459.424C507.678 459.773 507.212 460.033 506.706 460.186Z" fill="black"/>
<path id="Vector_12" d="M453.606 405.947C457.766 407.533 462.295 407.89 466.653 406.974C471.011 406.059 475.013 403.911 478.185 400.786C476.219 405.979 476.769 428.008 476.769 428.008C476.769 428.008 494.202 419.731 496.568 418.283C510.537 409.734 491.27 372.542 475.242 378.407C472.528 379.401 470.26 380.57 469.162 383.244C466.769 380.292 462.239 379.651 458.754 381.168C455.269 382.684 452.792 385.97 451.46 389.529C450.408 392.402 449.999 395.469 450.262 398.517C450.525 401.564 451.453 404.517 452.981 407.167L453.606 405.947Z" fill="#8C684A"/>
</g>
<g id="trees">
<path id="Vector_13" d="M701.237 446C799.228 446 878.666 346.159 878.666 223C878.666 99.8405 799.228 0 701.237 0C603.246 0 523.808 99.8405 523.808 223C523.808 346.159 603.246 446 701.237 446Z" fill="#F2F2F2"/>
<path id="Vector_14" d="M833.22 74.0535C871.742 187.308 829.922 318.367 739.812 366.784C669.705 404.452 588.289 381.621 537.571 310.07C576.089 423.328 680.365 475.896 770.477 427.485C860.59 379.074 902.416 248.016 863.898 134.759C856.647 113.152 846.314 92.7066 833.22 74.0535V74.0535Z" fill="#E6E6E6"/>
<path id="Vector_15" d="M701.725 177.429H702.212L710.986 680.469H692.464L701.725 177.429Z" fill="#CCCCCC"/>
<path id="Vector_16" d="M729.944 507.669L700.614 523.11L704.702 530.874L734.031 515.433L729.944 507.669Z" fill="#CCCCCC"/>
<path id="Vector_17" d="M137.014 498C212.684 498 274.027 421.217 274.027 326.5C274.027 231.783 212.684 155 137.014 155C61.3431 155 0 231.783 0 326.5C0 421.217 61.3431 498 137.014 498Z" fill="#F2F2F2"/>
<path id="Vector_18" d="M238.933 211.951C268.68 299.05 236.386 399.843 166.801 437.078C112.664 466.047 49.7929 448.489 10.6277 393.462C40.3719 480.564 120.895 520.992 190.482 483.761C260.069 446.53 292.367 345.739 262.623 258.637C257.02 242.014 249.041 226.289 238.933 211.951V211.951Z" fill="#E6E6E6"/>
<path id="Vector_19" d="M137.39 292.014H137.766L144.542 680.469H130.239L137.39 292.014Z" fill="#CCCCCC"/>
<path id="Vector_20" d="M159.181 552.608L136.533 564.532L139.689 570.528L162.338 558.603L159.181 552.608Z" fill="#CCCCCC"/>
</g>
<a href="https://www.instagram.com/maciejczukmonika/">
<g id="inst">
<path id="Vector_21" d="M426.74 272.578H412.643C410.028 272.585 407.523 273.628 405.674 275.477C403.825 277.326 402.783 279.831 402.775 282.446V296.543C402.783 299.158 403.825 301.663 405.674 303.513C407.523 305.362 410.028 306.404 412.643 306.411H426.74C429.355 306.404 431.861 305.362 433.71 303.512C435.559 301.663 436.601 299.158 436.608 296.543V282.446C436.601 279.831 435.559 277.326 433.71 275.477C431.861 273.628 429.355 272.586 426.74 272.578V272.578Z" fill="#3F3D56"/>
<path id="Vector_22" d="M428.855 282.446C428.295 282.445 427.76 282.222 427.365 281.826C426.97 281.43 426.749 280.893 426.749 280.334C426.75 279.775 426.972 279.239 427.368 278.843C427.764 278.448 428.3 278.226 428.859 278.226C429.418 278.226 429.955 278.448 430.35 278.843C430.746 279.239 430.969 279.775 430.969 280.334C430.97 280.893 430.748 281.43 430.354 281.826C429.959 282.222 429.423 282.445 428.864 282.446H428.855Z" fill="white"/>
<path id="Vector_23" d="M419.692 283.855C420.807 283.855 421.897 284.186 422.825 284.806C423.752 285.425 424.475 286.306 424.902 287.337C425.328 288.367 425.44 289.501 425.222 290.595C425.005 291.689 424.468 292.693 423.679 293.482C422.89 294.271 421.886 294.808 420.792 295.025C419.698 295.243 418.564 295.131 417.534 294.704C416.503 294.278 415.623 293.555 415.003 292.628C414.383 291.7 414.052 290.61 414.052 289.495C414.052 288.754 414.198 288.021 414.482 287.337C414.765 286.652 415.181 286.031 415.704 285.507C416.228 284.983 416.849 284.568 417.534 284.285C418.218 284.001 418.951 283.855 419.692 283.855V283.855ZM419.692 281.036C418.019 281.036 416.383 281.532 414.992 282.462C413.601 283.391 412.517 284.712 411.877 286.258C411.237 287.803 411.069 289.504 411.396 291.145C411.722 292.785 412.528 294.293 413.711 295.475C414.894 296.658 416.401 297.464 418.041 297.79C419.682 298.117 421.383 297.949 422.928 297.309C424.474 296.669 425.795 295.585 426.724 294.194C427.654 292.803 428.15 291.167 428.15 289.495V289.495C428.15 287.251 427.259 285.1 425.673 283.514C424.086 281.927 421.935 281.036 419.692 281.036V281.036Z" fill="white"/>
<path id="Vector_24" d="M419.692 322.494C413.165 322.494 406.785 320.559 401.358 316.933C395.931 313.307 391.701 308.153 389.204 302.123C386.706 296.093 386.052 289.458 387.326 283.056C388.599 276.655 391.742 270.775 396.357 266.16C400.972 261.545 406.852 258.402 413.254 257.129C419.655 255.855 426.29 256.509 432.32 259.006C438.35 261.504 443.504 265.734 447.13 271.161C450.756 276.587 452.692 282.968 452.692 289.494C452.682 298.244 449.202 306.631 443.015 312.818C436.829 319.005 428.441 322.485 419.692 322.494V322.494ZM419.692 258.494C413.56 258.494 407.567 260.313 402.469 263.719C397.371 267.125 393.398 271.967 391.051 277.631C388.705 283.296 388.091 289.529 389.287 295.542C390.483 301.556 393.436 307.079 397.771 311.415C402.107 315.75 407.63 318.703 413.644 319.899C419.657 321.095 425.89 320.481 431.555 318.135C437.219 315.788 442.061 311.815 445.467 306.717C448.873 301.619 450.692 295.626 450.692 289.494C450.682 281.276 447.413 273.396 441.602 267.584C435.79 261.773 427.91 258.504 419.692 258.494V258.494Z" fill="#3F3D56"/>
</g>
</a>
<a href="https://www.facebook.com/monika.maciejczukwiekiera">
<g id="fb">
<path id="Vector_25" fill-rule="evenodd" clip-rule="evenodd" d="M391.661 374.327C391.66 370.824 390.656 367.395 388.767 364.445C386.878 361.495 384.183 359.148 381.002 357.682C377.82 356.216 374.285 355.693 370.816 356.173C367.346 356.654 364.086 358.119 361.423 360.394C358.76 362.67 356.805 365.66 355.788 369.013C354.772 372.365 354.738 375.938 355.689 379.309C356.641 382.681 358.538 385.709 361.157 388.035C363.776 390.361 367.006 391.888 370.466 392.436V379.627H365.811V374.327H370.466V370.288C370.466 365.695 373.204 363.155 377.39 363.155C378.765 363.175 380.137 363.294 381.494 363.514V368.025H379.181C378.787 367.973 378.387 368.01 378.009 368.134C377.631 368.257 377.286 368.464 377 368.739C376.713 369.014 376.491 369.351 376.352 369.723C376.212 370.095 376.158 370.494 376.194 370.889V374.328H381.277L380.465 379.628H376.194V392.437C380.506 391.755 384.433 389.555 387.268 386.235C390.103 382.916 391.661 378.693 391.661 374.327H391.661Z" fill="#3F3D56"/>
<path id="Vector_26" d="M372.507 407.464C365.98 407.464 359.6 405.528 354.173 401.902C348.746 398.276 344.516 393.122 342.019 387.092C339.521 381.062 338.868 374.427 340.141 368.026C341.414 361.624 344.557 355.744 349.172 351.129C353.787 346.514 359.667 343.371 366.069 342.098C372.47 340.824 379.105 341.478 385.135 343.976C391.165 346.473 396.319 350.703 399.945 356.13C403.571 361.557 405.507 367.937 405.507 374.464C405.497 383.213 402.017 391.601 395.83 397.787C389.644 403.974 381.256 407.454 372.507 407.464V407.464ZM372.507 343.464C366.376 343.464 360.382 345.282 355.284 348.688C350.186 352.094 346.213 356.936 343.866 362.6C341.52 368.265 340.906 374.498 342.102 380.511C343.299 386.525 346.251 392.049 350.586 396.384C354.922 400.719 360.446 403.672 366.459 404.868C372.472 406.064 378.705 405.45 384.37 403.104C390.034 400.758 394.876 396.784 398.282 391.686C401.689 386.588 403.507 380.595 403.507 374.464C403.497 366.245 400.228 358.365 394.417 352.554C388.605 346.742 380.726 343.473 372.507 343.464V343.464Z" fill="#3F3D56"/>
</g>
</a>
<g id="ground">
<path id="Vector_27" d="M802.247 681H22.2467C21.9815 681 21.7272 680.895 21.5396 680.707C21.3521 680.52 21.2467 680.265 21.2467 680C21.2467 679.735 21.3521 679.48 21.5396 679.293C21.7272 679.105 21.9815 679 22.2467 679H802.247C802.512 679 802.766 679.105 802.954 679.293C803.141 679.48 803.247 679.735 803.247 680C803.247 680.265 803.141 680.52 802.954 680.707C802.766 680.895 802.512 681 802.247 681Z" fill="#CCCCCC"/>
</g>
</g>
<defs>
<clipPath id="clip1">
<rect width="878.666" height="681" fill="white"/>
</clipPath>
</defs>
</svg>
