<svg  viewBox="0 0 768 729" fill="none" xmlns="http://www.w3.org/2000/svg">
<g id="scene" clip-path="url(#clip0)">
<g id="phone">
<path id="Vector" d="M466.884 172.947H462.885V63.4019C462.885 46.5867 456.205 30.4602 444.315 18.57C432.425 6.67985 416.299 2.12175e-05 399.483 2.01908e-10H167.397C159.071 -2.10113e-05 150.826 1.6399 143.134 4.82612C135.441 8.01234 128.452 12.6825 122.565 18.5699C116.677 24.4573 112.007 31.4466 108.821 39.1389C105.635 46.8311 103.995 55.0757 103.995 63.4017V664.376C103.995 672.702 105.635 680.947 108.821 688.639C112.007 696.331 116.677 703.321 122.565 709.208C128.452 715.095 135.441 719.766 143.134 722.952C150.826 726.138 159.07 727.778 167.396 727.778H399.483C416.298 727.778 432.425 721.098 444.315 709.208C456.205 697.318 462.885 681.192 462.885 664.376V250.923H466.884L466.884 172.947Z" fill="#3F3D56"/>
<path id="Vector_2" d="M402.041 16.495H371.746C373.14 19.9106 373.671 23.6165 373.295 27.2861C372.919 30.9557 371.645 34.4764 369.588 37.538C367.53 40.5997 364.751 43.1084 361.496 44.8431C358.24 46.5778 354.608 47.4852 350.919 47.4855H217.96C214.271 47.4852 210.639 46.5778 207.383 44.8431C204.128 43.1084 201.349 40.5998 199.291 37.5381C197.234 34.4764 195.96 30.9557 195.584 27.2861C195.208 23.6165 195.739 19.9106 197.133 16.495H168.837C156.28 16.495 144.236 21.4834 135.357 30.3628C126.478 39.2422 121.489 51.2853 121.489 63.8427V663.935C121.489 670.153 122.714 676.31 125.093 682.055C127.473 687.799 130.96 693.019 135.357 697.415C139.754 701.812 144.973 705.3 150.718 707.679C156.462 710.058 162.619 711.283 168.837 711.283H402.041C408.259 711.283 414.416 710.058 420.161 707.679C425.905 705.3 431.125 701.812 435.521 697.415C439.918 693.019 443.406 687.799 445.785 682.055C448.165 676.31 449.389 670.153 449.389 663.935V663.935V63.8427C449.389 57.6249 448.165 51.468 445.785 45.7235C443.406 39.979 439.918 34.7594 435.521 30.3628C431.125 25.9662 425.905 22.4786 420.161 20.0991C414.416 17.7197 408.259 16.495 402.041 16.495V16.495Z" fill="white"/>
<path id="Vector_3" d="M285.036 128.247H149.431V359.905H285.036V128.247Z" fill="#E6E6E6"/>
<path id="Vector_4" d="M421.04 378.05H308.333V640.318H421.04V378.05Z" fill="#E6E6E6"/>
<path id="Vector_5" d="M421.447 128.247H308.444V192.014H421.447V128.247Z" fill="#E6E6E6"/>
<path id="Vector_6" d="M421.447 209.771H308.444V278.381H421.447V209.771Z" fill="black"/>
<path id="Vector_7" d="M421.447 296.138H308.444V359.905H421.447V296.138Z" fill="#E6E6E6"/>
<path id="Vector_8" d="M285.203 378.05H149.599V479.005H285.203V378.05Z" fill="#E6E6E6"/>
<path id="Vector_9" d="M285.203 498.576H149.599V640.531H285.203V498.576Z" fill="#E6E6E6"/>
</g>
<g id="girl">
<path id="Vector_10" d="M593.221 287.98C593.221 310.025 572.837 306.69 547.692 306.69C522.547 306.69 502.163 310.025 502.163 287.98C502.163 265.934 512.12 226.858 547.692 226.858C584.49 226.858 593.221 265.934 593.221 287.98Z" fill="#8C684A"/>
<path id="Vector_11" d="M419.221 247.889C418.409 249.533 417.967 251.335 417.926 253.169C417.885 255.002 418.247 256.822 418.986 258.5C419.724 260.179 420.822 261.675 422.202 262.883C423.581 264.091 425.209 264.982 426.97 265.493L429.264 310.009L447.919 296.279L442.88 256.111C443.543 253.095 443.077 249.942 441.569 247.247C440.062 244.553 437.619 242.505 434.703 241.492C431.786 240.478 428.6 240.57 425.746 241.749C422.893 242.928 420.571 245.113 419.221 247.889V247.889Z" fill="#FFB8B8"/>
<path id="Vector_12" d="M623.732 499.465C624.744 497.936 625.409 496.203 625.679 494.39C625.95 492.576 625.819 490.725 625.297 488.967C624.774 487.209 623.873 485.587 622.656 484.216C621.439 482.844 619.936 481.756 618.253 481.028L621.56 436.576L601.33 447.858L601.291 488.341C600.255 491.249 600.322 494.437 601.48 497.299C602.637 500.161 604.804 502.499 607.57 503.87C610.337 505.242 613.51 505.55 616.488 504.738C619.467 503.926 622.044 502.05 623.732 499.465V499.465Z" fill="#FFB8B8"/>
<path id="Vector_13" d="M530.567 713.445H545.859L553.134 654.459L530.564 654.46L530.567 713.445Z" fill="#FFB8B8"/>
<path id="Vector_14" d="M526.666 708.453L556.782 708.451H556.784C559.304 708.451 561.8 708.948 564.128 709.912C566.457 710.877 568.573 712.29 570.355 714.072C572.137 715.855 573.551 717.97 574.515 720.299C575.48 722.628 575.976 725.123 575.976 727.644V728.267L526.667 728.269L526.666 708.453Z" fill="#2F2E41"/>
<path id="Vector_15" d="M627.862 713.445H643.155L650.43 654.459L627.86 654.46L627.862 713.445Z" fill="#FFB8B8"/>
<path id="Vector_16" d="M623.961 708.453L654.078 708.451H654.079C656.599 708.451 659.095 708.948 661.424 709.912C663.752 710.877 665.868 712.29 667.65 714.072C669.433 715.855 670.846 717.97 671.811 720.299C672.775 722.628 673.272 725.123 673.272 727.644V728.267L623.962 728.269L623.961 708.453Z" fill="#2F2E41"/>
<path id="Vector_17" d="M619.134 474.973L618.469 474.852C612.899 473.844 607.261 472.824 602.304 471.758L601.814 471.652L601.812 471.15C601.727 448.54 601.641 425.934 601.516 403.123C589.677 379.26 584.7 352.576 587.139 326.049L587.167 325.769L587.397 325.604C589.555 324.106 592.073 323.209 594.692 323.007C597.311 322.804 599.937 323.303 602.299 324.452C604.61 325.715 606.585 327.512 608.061 329.694C609.536 331.876 610.468 334.379 610.78 336.994C615.288 361.561 619.954 387.002 625.159 412.072L625.178 412.163L625.17 412.257C623.241 432.702 621.247 453.844 619.201 474.301L619.134 474.973Z" fill="black"/>
<path id="Vector_18" d="M609.164 692.422L609.043 691.847C601.889 658.007 594.983 630.451 588.304 603.801C580.301 571.864 572.716 541.6 565.059 502.437C566.111 551.824 568.553 587.306 571.361 628.091C572.628 646.507 573.939 665.55 575.269 687.781L575.31 688.46L574.631 688.443C550.697 687.83 526.175 686.351 502.461 684.922L501.833 684.884L501.876 684.257C506.366 618.079 507.773 575.076 508.8 543.676C510.967 477.43 511.3 467.247 535.977 411.182C536.912 409.056 542.493 402.771 548.628 403.729L597.179 411.285L597.264 411.712C598.634 418.613 605.433 439.553 614.842 468.535C634.957 530.491 665.356 624.12 674.852 679.93L674.959 680.562L674.325 680.653C660.532 682.613 650.605 684.654 641.005 686.628C631.921 688.496 622.53 690.427 609.745 692.335L609.164 692.422Z" fill="#2F2E41"/>
<path id="Vector_19" d="M566.968 428.798C554.009 428.799 541.201 424.303 532.019 415.548C530.584 414.713 529.371 413.546 528.481 412.144C527.592 410.743 527.052 409.148 526.907 407.494C526.671 405.979 526.77 404.43 527.197 402.958C527.623 401.485 528.367 400.123 529.375 398.968C520.373 388.072 511.079 376.81 502.182 365.342L501.936 365.026L502.221 364.482C508.041 353.361 514.061 341.862 519.841 330.499C520.243 329.508 520.906 328.645 521.758 327.999C522.61 327.354 523.621 326.951 524.683 326.832C525.606 326.658 526.555 326.673 527.471 326.878C528.388 327.083 529.253 327.473 530.014 328.023L530.026 327.747C530.267 321.995 530.509 316.243 530.757 310.79L530.784 310.208L531.367 310.195C542.481 309.95 553.973 309.695 565.262 309.027L565.692 309.001L571.291 321.491C580.385 320.607 589.535 322.465 597.565 326.824L597.935 327.021L597.892 327.438C595.64 348.902 596.129 370.567 599.349 391.908C599.174 401.652 598.987 411.611 597.009 419.55L596.952 419.781L596.754 419.915C587.929 425.772 577.559 428.864 566.968 428.798V428.798Z" fill="black"/>
<path id="Vector_20" d="M519.27 374.613L518.524 374.27C509.817 369.902 501.083 365.056 492.636 360.37L491.469 360.142C469.229 355.678 456.978 353.22 436.914 341.454L436.76 341.362L436.677 341.204C426.631 322.012 423.828 305.236 426.337 279.306L426.387 278.786L426.908 278.745C429.083 278.568 432.628 278.45 436.056 278.335C439.391 278.225 442.84 278.109 444.954 277.943L445.445 277.904L445.597 278.372C448.226 286.491 450.459 294.065 452.824 302.084C455.254 310.328 457.767 318.847 460.827 328.313C472.03 331.533 502.064 330.571 511.403 329.299C516.792 328.746 522.236 331.237 525.993 335.933L526.166 336.15L526.122 336.424C524.066 348.971 521.705 361.592 519.422 373.798L519.27 374.613Z" fill="black"/>
<path id="Vector_21" d="M574.015 289.533C582.131 274.686 576.674 256.071 561.827 247.955C546.981 239.839 528.366 245.296 520.25 260.143C512.134 274.989 517.59 293.604 532.437 301.72C547.284 309.836 565.899 304.38 574.015 289.533Z" fill="#FFB8B8"/>
<path id="Vector_22" d="M512.142 273.011H524.259L529.605 258.042L530.674 273.011H536.466L539.584 264.279L540.208 273.011H583.242C583.242 264.41 579.825 256.16 573.743 250.078C567.661 243.996 559.412 240.579 550.81 240.579H544.573C535.972 240.579 527.723 243.996 521.641 250.078C515.559 256.16 512.142 264.41 512.142 273.011Z" fill="#8C684A"/>
</g>
</g>
<defs>
<clipPath id="clip0">
<rect width="768" height="728.858" fill="white"/>
</clipPath>
</defs>
</svg>
