<svg width="200" height="200" viewBox="0 0 1000 1000" fill="none" xmlns="http://www.w3.org/2000/svg">
<path d="M1000 0H0V1000H1000V0Z" fill="white"/>
<path opacity="0.28" d="M399 253C351.6 256.2 348.9 320.2 261 369C189.5 408.7 153.8 387.1 131.5 416.7C73.7 493.5 213.5 772 375 785C453.4 791.3 469.6 729.6 627 691C754.3 659.8 789.2 689 835 651C942.3 562 894.3 282.7 813.5 262.7C744.3 245.5 684 427.2 583.5 412.7C494.7 399.9 472.5 248 399 253Z" fill="#333379"/>
<path d="M619.9 346.3C623.9 372.7 619.9 413.3 648.8 434.9C676.3 455.4 699 450.3 699 450.3C701.7 440.5 736.5 344.7 619.9 346.3Z" fill="#022266"/>
<path d="M776.2 352.5C751.5 362.5 711 368.1 696.8 401.3C692 412.5 690.2 422.4 689.9 430.5C683 445.8 676.4 458.3 670 468.5C649.4 501.2 631.7 509.7 617.9 510.1C589.8 510.9 579.9 477.7 509.9 418.1C462.3 377.5 434.6 354.6 391.9 348.1C335.3 339.5 291.1 365.9 284.7 369.9C272.4 377.5 237.2 399.1 223.9 440.1C197.6 521.3 278.6 596.7 287.7 604.9C326.6 640.1 369.2 650.3 392.7 655.9C407.9 659.5 461.5 671 527.9 654.5C566.1 645 638.9 626.9 681.9 558.1C704.4 522.1 711 484.6 711.5 454.1C742.4 452.9 798.6 440.4 776.2 352.5Z" fill="#32FD99"/>
<g opacity="0.15">
<g opacity="0.15">
<g opacity="0.15">
<path opacity="0.15" d="M776.2 352.5C772.9 353.9 769.2 355.1 765.4 356.4C783.2 437.4 729.4 449.6 699.4 450.8C699.1 481.3 692.7 518.8 670.5 554.9C628 624 555.2 642.5 517.1 652.3C473.8 663.3 435.9 662.4 410.6 659.5C435.1 663.5 477.9 666.9 527.9 654.5C566.1 645 638.9 626.9 681.9 558.1C704.4 522.1 711 484.6 711.5 454.1C742.4 452.9 798.6 440.4 776.2 352.5Z" fill="#515151"/>
</g>
</g>
</g>
<path opacity="0.2" d="M253.9 473.2C259.975 473.2 264.9 467.559 264.9 460.6C264.9 453.641 259.975 448 253.9 448C247.825 448 242.9 453.641 242.9 460.6C242.9 467.559 247.825 473.2 253.9 473.2Z" fill="#515151"/>
<path opacity="0.2" d="M331.1 460.7C337.286 460.7 342.3 454.924 342.3 447.8C342.3 440.675 337.286 434.9 331.1 434.9C324.914 434.9 319.9 440.675 319.9 447.8C319.9 454.924 324.914 460.7 331.1 460.7Z" fill="#515151"/>
<g opacity="0.16">
<g opacity="0.16">
<g opacity="0.16">
<path opacity="0.16" d="M271.2 389.3C276.6 386 321.7 360.4 378.4 367.5C429.1 373.9 462.9 403.2 495.7 431.7C558.6 486.3 590.9 526.2 619.9 520.4C633.5 517.7 642.2 510.6 656.5 488C657.2 486.9 657.9 485.8 658.5 484.7C642.8 504.2 629 509.8 617.9 510.1C589.8 510.9 579.9 477.7 509.9 418.1C462.3 377.5 434.6 354.6 391.9 348.1C335.3 339.5 291.1 365.9 284.7 369.9C274.3 376.3 247.8 392.6 231.7 422C246.5 404.6 263.4 394.2 271.2 389.3Z" fill="#515151"/>
</g>
</g>
</g>
<path d="M527.9 654.4C557.2 647.1 606.8 634.8 647.8 598.4C567.2 632.8 514.6 626.7 479.9 612C397.6 577 375.1 475.3 305.9 478C287.5 478.7 263.1 486.4 251.9 506C238.3 529.9 251.3 558.5 253.4 563C260.1 574 271.1 589.5 287.7 604.8C325.5 639.6 367 649.7 392.7 655.8C407.9 659.5 461.5 670.9 527.9 654.4Z" fill="#A6FFD0"/>
<path opacity="0.12" d="M302.5 478C302.5 478 349.5 590 479 617" stroke="#022266" stroke-width="6" stroke-miterlimit="10" stroke-linecap="round" stroke-linejoin="round"/>
<path opacity="0.08" d="M536.1 644.6C469.7 661.1 416.1 649.7 400.9 646C375.2 639.8 333.7 629.8 295.9 595C279.3 579.7 268.3 564.2 261.6 553.2C259.5 548.7 246.5 520.1 260.1 496.2C260.3 495.8 260.6 495.4 260.9 494.9C257.4 498.1 254.4 501.8 252 506C238.4 529.9 251.4 558.5 253.5 563C260.2 574 271.2 589.5 287.8 604.8C325.6 639.6 367.1 649.7 392.8 655.8C408 659.4 461.6 670.9 528 654.4C557.3 647.1 606.9 634.8 647.9 598.4C644.9 599.7 641.9 600.9 638.9 602.1C601.8 628.2 561.3 638.3 536.1 644.6Z" fill="#515151"/>
<path opacity="0.12" d="M253.9 507.8C253.9 507.8 273 581.2 353 622.5C412 653 506.3 669.2 623.9 614" stroke="#022266" stroke-width="6" stroke-miterlimit="10" stroke-linecap="round" stroke-linejoin="round"/>
<path opacity="0.12" d="M269.1 488.7C269.1 488.7 334.5 691 607.4 615.5" stroke="#022266" stroke-width="6" stroke-miterlimit="10" stroke-linecap="round" stroke-linejoin="round"/>
<path d="M527.9 654.4C557.2 647.1 606.8 634.8 647.8 598.4C567.2 632.8 514.6 626.7 479.9 612C397.6 577 375.1 475.3 305.9 478C287.5 478.7 263.1 486.4 251.9 506C238.3 529.9 251.3 558.5 253.4 563C260.1 574 271.1 589.5 287.7 604.8C325.5 639.6 367 649.7 392.7 655.8C407.9 659.5 461.5 670.9 527.9 654.4Z" stroke="#022266" stroke-width="6" stroke-miterlimit="10" stroke-linecap="round" stroke-linejoin="round"/>
<path d="M250.8 471.6C255.826 471.6 259.9 466.317 259.9 459.8C259.9 453.283 255.826 448 250.8 448C245.774 448 241.7 453.283 241.7 459.8C241.7 466.317 245.774 471.6 250.8 471.6Z" fill="#022266"/>
<path d="M249.4 458.5C251.112 458.5 252.5 456.664 252.5 454.4C252.5 452.136 251.112 450.3 249.4 450.3C247.688 450.3 246.3 452.136 246.3 454.4C246.3 456.664 247.688 458.5 249.4 458.5Z" fill="white"/>
<path d="M327.6 458.6C332.626 458.6 336.7 453.317 336.7 446.8C336.7 440.283 332.626 435 327.6 435C322.574 435 318.5 440.283 318.5 446.8C318.5 453.317 322.574 458.6 327.6 458.6Z" fill="#022266"/>
<path d="M326.4 446.8C328.223 446.8 329.7 444.651 329.7 442C329.7 439.349 328.223 437.2 326.4 437.2C324.577 437.2 323.1 439.349 323.1 442C323.1 444.651 324.577 446.8 326.4 446.8Z" fill="white"/>
<path d="M328 455.1C328.884 455.1 329.6 454.026 329.6 452.7C329.6 451.375 328.884 450.3 328 450.3C327.116 450.3 326.4 451.375 326.4 452.7C326.4 454.026 327.116 455.1 328 455.1Z" fill="white"/>
<path d="M252.5 467C253.384 467 254.1 465.925 254.1 464.6C254.1 463.274 253.384 462.2 252.5 462.2C251.616 462.2 250.9 463.274 250.9 464.6C250.9 465.925 251.616 467 252.5 467Z" fill="white"/>
<path d="M776.2 352.5C751.5 362.5 711 368.1 696.8 401.3C692 412.5 690.2 422.4 689.9 430.5C683 445.8 676.4 458.3 670 468.5C649.4 501.2 631.7 509.7 617.9 510.1C589.8 510.9 579.9 477.7 509.9 418.1C462.3 377.5 434.6 354.6 391.9 348.1C335.3 339.5 291.1 365.9 284.7 369.9C272.4 377.5 237.2 399.1 223.9 440.1C197.6 521.3 278.6 596.7 287.7 604.9C326.6 640.1 369.2 650.3 392.7 655.9C407.9 659.5 461.5 671 527.9 654.5C566.1 645 638.9 626.9 681.9 558.1C704.4 522.1 711 484.6 711.5 454.1C742.4 452.9 798.6 440.4 776.2 352.5Z" stroke="#022266" stroke-width="6" stroke-miterlimit="10" stroke-linecap="round" stroke-linejoin="round"/>
<path d="M499.9 562C499.9 562 556.2 626.9 513.9 704C487.9 730 465.1 648 465.1 622C465.1 596 473.9 581.3 473.9 581.3" fill="#32FD99"/>
<path opacity="0.2" d="M499.9 562L498.6 562.9C512.5 586.7 531.7 634.9 501.9 689.3C495.8 695.4 489.9 695.6 484.4 691.9C492.7 706.8 503.1 714.9 513.9 704C556.2 626.9 499.9 562 499.9 562Z" fill="#515151"/>
<path d="M499.9 562C499.9 562 556.2 626.9 513.9 704C487.9 730 465.1 648 465.1 622C465.1 596 473.9 581.3 473.9 581.3" stroke="#022266" stroke-width="6" stroke-miterlimit="10" stroke-linecap="round" stroke-linejoin="round"/>
<path opacity="0.28" d="M584.7 243C584.7 243 543.7 235 543.7 277C543.7 319 609.7 327 627.7 309C645.7 291 677.4 260.1 659.7 242.4C642 224.7 584.7 243 584.7 243Z" fill="#333379"/>
<path opacity="0.28" d="M206.5 297.4C204.2 297.1 191.5 295.6 186.6 302.5C180.5 311 189.9 327.3 201 335C208.5 340.2 224.1 346.5 233.1 338.2C241.5 330.5 239.6 314.1 231 305C221.8 295.3 207.9 297.2 206.5 297.4Z" fill="#333379"/>
</svg>
